<svg width="304" height="300" viewBox="0 0 304 300" fill="none" xmlns="http://www.w3.org/2000/svg">
<g opacity="0.2">
<mask id="mask0_83479_3014" style="mask-type:luminance" maskUnits="userSpaceOnUse" x="0" y="0" width="300" height="300">
<path d="M0 0H300V300H0V0Z" fill="white"/>
</mask>
<g mask="url(#mask0_83479_3014)">
<g opacity="0.3">
<path fill-rule="evenodd" clip-rule="evenodd" d="M-279.101 155.425C-277.601 153.355 -274.721 152.905 -272.651 154.405C-271.841 154.975 -271.271 155.785 -271.001 156.655L-207.191 139.645C-207.091 139.485 -206.991 139.335 -206.891 139.195C-206.501 138.625 -205.991 138.205 -205.421 137.875L-254.321 36.8047C-255.761 37.4048 -257.441 37.2547 -258.791 36.2647C-260.861 34.7647 -261.311 31.8847 -259.811 29.8147C-258.311 27.7448 -255.401 27.2947 -253.361 28.7947C-252.491 29.4247 -251.921 30.2648 -251.651 31.2248L-175.751 13.9147C-175.931 12.7448 -175.691 11.4847 -174.911 10.4648C-173.921 9.08475 -172.301 8.42477 -170.711 8.57477L-161.591 -46.0853C-162.191 -46.2353 -162.731 -46.4753 -163.271 -46.8652C-165.341 -48.3652 -165.791 -51.2752 -164.291 -53.3152C-162.791 -55.3853 -159.881 -55.8653 -157.811 -54.3353C-156.521 -53.4052 -155.861 -51.9352 -155.921 -50.4352L-94.7812 -44.2852C-94.6612 -44.9753 -94.3912 -45.6353 -93.9412 -46.2353C-92.5912 -48.1252 -90.0412 -48.6653 -88.0312 -47.6152L-57.2512 -102.455C-57.2712 -102.475 -57.2912 -102.485 -57.3112 -102.485C-59.3812 -103.985 -59.8312 -106.895 -58.3312 -108.965C-56.8312 -111.035 -53.9212 -111.485 -51.8512 -109.985C-51.4712 -109.685 -51.1412 -109.345 -50.8612 -108.965L-10.4212 -133.235C-11.2012 -134.765 -11.1412 -136.625 -10.0612 -138.095C-8.56125 -140.165 -5.68124 -140.615 -3.61124 -139.115C-1.54123 -137.615 -1.09122 -134.765 -2.53122 -132.695L44.7788 -94.4452C46.3688 -96.0352 48.9188 -96.2753 50.7788 -94.9253C52.8488 -93.4253 53.2988 -90.5153 51.7988 -88.4753C51.4088 -87.9053 50.8988 -87.4853 50.3588 -87.1552L103.039 30.2947C104.449 29.7547 106.069 29.9348 107.389 30.8647C109.459 32.3947 109.909 35.2747 108.409 37.3447C106.909 39.4147 103.999 39.8647 101.929 38.3647C101.089 37.7347 100.519 36.8647 100.219 35.9348L-9.94122 60.6248C-9.92123 60.8448 -9.91122 61.0747 -9.91122 61.3147L39.1988 65.5748C39.3188 64.9448 39.5888 64.3147 39.9788 63.7447C41.4788 61.6747 44.3888 61.2248 46.4588 62.7248C48.5288 64.2248 48.9788 67.1348 47.4788 69.2047L47.6588 68.9648L163.339 166.675C164.899 165.055 167.479 164.785 169.369 166.135C170.389 166.885 170.989 167.905 171.199 169.045L234.019 161.395C233.959 160.375 234.259 159.295 234.919 158.395C236.419 156.355 239.299 155.875 241.369 157.375C243.439 158.905 243.889 161.785 242.389 163.855C241.789 164.695 240.919 165.265 240.019 165.535L262.099 258.565C263.299 258.355 264.559 258.625 265.609 259.375C267.679 260.875 268.129 263.785 266.629 265.855C265.969 266.755 265.039 267.325 264.049 267.595L275.269 325.045C276.409 324.895 277.579 325.165 278.599 325.885C280.669 327.385 281.119 330.265 279.619 332.335C278.089 334.405 275.209 334.855 273.139 333.355C271.849 332.425 271.189 330.925 271.249 329.425L203.089 319.585C202.939 320.185 202.699 320.815 202.279 321.355C200.779 323.425 197.899 323.875 195.829 322.375C195.629 322.215 195.439 322.045 195.259 321.865L136.189 372.955C137.389 374.545 137.479 376.795 136.249 378.475C134.749 380.545 131.839 380.995 129.769 379.495C127.699 377.995 127.249 375.085 128.749 373.045C129.289 372.325 129.949 371.815 130.699 371.485L103.249 292.015C101.929 292.405 100.429 292.225 99.2288 291.325C97.6988 290.215 97.0688 288.385 97.4288 286.645L7.00876 263.395C6.86877 263.855 6.64877 264.285 6.34879 264.685C4.84879 266.755 1.93878 267.205 -0.101227 265.705C-2.1712 264.205 -2.65121 261.295 -1.12122 259.225C-0.961212 259.005 -0.791229 258.805 -0.611206 258.625L-44.8612 206.155C-46.4212 207.325 -48.6412 207.385 -50.3212 206.185C-51.1912 205.555 -51.7612 204.685 -52.0312 203.725L-136.961 222.745L-136.451 223.375L-137.561 222.865L-137.921 222.955L-137.861 222.715L-271.331 160.375C-271.411 160.535 -271.511 160.695 -271.631 160.855C-273.131 162.925 -276.041 163.375 -278.081 161.875C-280.151 160.375 -280.631 157.495 -279.101 155.425ZM-126.881 171.895L-198.941 143.845C-199.081 144.125 -199.231 144.385 -199.391 144.625C-199.571 144.865 -199.771 145.085 -199.991 145.285L-137.681 221.875L-126.881 171.895ZM-173.321 23.0348L-201.731 137.485C-201.391 137.605 -201.061 137.755 -200.741 137.935L-200.531 137.875L-116.321 19.2248C-117.191 18.5048 -117.761 17.5147 -117.941 16.4648L-173.321 23.0348ZM-117.161 12.8947C-116.921 12.5747 -116.651 12.2948 -116.351 12.0547L-133.841 -12.5452L-167.231 10.7647C-166.811 11.4847 -166.601 12.2648 -166.571 13.0748L-118.031 15.1447C-117.941 14.3647 -117.671 13.5847 -117.161 12.8947ZM-200.171 138.385C-199.511 138.925 -199.061 139.615 -198.791 140.365L-123.041 117.655L-114.131 20.2148C-114.731 20.0948 -115.301 19.8848 -115.841 19.5547L-200.171 138.385ZM-109.121 17.3047L-50.0812 44.6048L-37.8712 2.24475C-38.2712 2.10474 -38.6512 1.90472 -39.0112 1.64474C-39.8812 1.01474 -40.4512 0.144745 -40.7212 -0.785248L-108.881 14.9048C-108.731 15.7148 -108.821 16.5247 -109.121 17.3047ZM-198.761 143.305L-126.791 171.325L-121.991 149.125C-123.581 150.775 -126.161 151.045 -128.051 149.665C-129.281 148.765 -129.911 147.385 -129.941 146.005L-198.581 142.525C-198.621 142.785 -198.681 143.045 -198.761 143.305ZM-198.551 141.925H-198.281L-129.911 145.405C-129.821 144.625 -129.551 143.875 -129.071 143.215C-128.141 141.925 -126.671 141.265 -125.201 141.295L-123.101 118.315L-198.641 140.965C-198.581 141.285 -198.551 141.605 -198.551 141.925ZM-121.841 142.885L-69.8812 103.435C-70.0812 103.135 -70.2412 102.825 -70.3612 102.505L-122.471 118.135L-124.601 141.355C-123.911 141.475 -123.221 141.745 -122.591 142.195C-122.311 142.395 -122.061 142.625 -121.841 142.885ZM-121.451 143.365C-121.191 143.765 -121.001 144.195 -120.881 144.655L-60.5812 131.575L-65.2312 105.445C-66.4312 105.655 -67.6912 105.415 -68.7412 104.635C-69.0412 104.435 -69.3012 104.195 -69.5212 103.915L-121.451 143.365ZM-59.9812 131.455L11.2088 116.035C11.1488 115.635 11.1388 115.235 11.1788 114.835L-61.5112 101.995C-61.6312 102.565 -61.9012 103.135 -62.2612 103.615C-62.8612 104.455 -63.7012 105.025 -64.6312 105.325L-59.9812 131.455ZM-18.8512 59.6947L-49.6912 45.4147L-64.4512 96.5348C-64.0512 96.6748 -63.6612 96.8748 -63.2812 97.1348C-63.1612 97.2348 -63.0412 97.3448 -62.9212 97.4648L-18.2812 64.1048C-19.2112 62.8148 -19.4212 61.1647 -18.8512 59.6947ZM11.2688 114.235C11.3888 113.665 11.6588 113.125 12.0188 112.615C12.3488 112.135 12.7988 111.745 13.2788 111.445L-3.28122 81.3548L-61.5412 99.7747C-61.4212 100.235 -61.3712 100.695 -61.3912 101.155L11.2688 114.235ZM-3.58121 80.8448L-12.1312 65.3047C-13.6912 66.2647 -15.7012 66.2347 -17.2612 65.0947C-17.4812 64.9347 -17.6912 64.7548 -17.8912 64.5547L-62.5012 97.9148C-62.1712 98.3047 -61.9012 98.7548 -61.7212 99.2348L-3.58121 80.8448ZM-16.3012 57.1147L-35.0812 2.36475C-35.7712 2.54474 -36.5512 2.57477 -37.2712 2.42477L-49.5112 44.8748L-18.5812 59.1548C-18.4812 58.9748 -18.3712 58.8047 -18.2512 58.6447C-17.7412 57.9247 -17.0512 57.4147 -16.3012 57.1147ZM-109.361 17.8748C-109.441 18.0548 -109.541 18.2248 -109.661 18.3848C-110.021 18.8647 -110.441 19.2548 -110.921 19.5547L-67.9912 96.7148C-67.0612 96.2948 -66.0112 96.1748 -65.0212 96.3848L-50.2312 45.2047L-109.361 17.8748ZM-111.461 19.8248C-112.091 20.1548 -112.841 20.3048 -113.561 20.2748L-122.411 117.505L-70.5112 101.935C-70.8112 100.675 -70.5712 99.2948 -69.7612 98.1848C-69.4012 97.7048 -68.9812 97.3148 -68.5312 97.0148L-111.461 19.8248ZM-52.0312 201.055L-126.341 172.135L-137.141 222.175L-52.1812 203.155C-52.3012 202.465 -52.2412 201.745 -52.0312 201.055ZM-51.5212 199.975L-121.391 149.155L-126.221 171.535L-51.8212 200.485C-51.7212 200.305 -51.6212 200.135 -51.5212 199.975ZM-48.7312 197.965L-60.4612 132.175L-120.761 145.225C-120.581 146.305 -120.791 147.415 -121.421 148.405L-51.1612 199.495C-50.5312 198.715 -49.6612 198.175 -48.7312 197.965ZM12.7988 118.885C12.0488 118.285 11.5388 117.475 11.2988 116.605L-59.8912 132.055L-48.1312 197.845C-47.1112 197.725 -46.0612 197.965 -45.1612 198.535L12.7988 118.885ZM-44.6512 198.895C-43.6312 199.735 -43.0612 200.905 -42.9712 202.135L7.66876 202.195L15.0488 119.905C14.4488 119.815 13.8488 119.605 13.3088 119.245L-44.6512 198.895ZM8.23877 202.195L88.1588 202.285C88.1588 201.325 88.4288 200.365 89.0288 199.525C89.0888 199.445 89.1588 199.365 89.2388 199.285L18.5588 119.005C17.7188 119.665 16.6688 119.995 15.6188 119.965L8.23877 202.195ZM2.68878 257.335L7.60876 202.795L-43.0012 202.735C-43.0612 203.575 -43.3312 204.415 -43.8712 205.165C-44.0312 205.385 -44.2112 205.585 -44.4112 205.765L-0.161224 258.235C0.678772 257.635 1.69879 257.335 2.68878 257.335ZM63.5888 221.335L88.8188 204.655C88.4888 204.115 88.2788 203.485 88.1888 202.855L8.20877 202.795L3.28879 257.395C4.00879 257.515 4.69879 257.785 5.2988 258.235C5.67877 258.515 6.00879 258.825 6.28879 259.165L63.5888 221.335ZM7.09879 260.995L97.2188 247.495L92.7188 206.875C91.7888 206.875 90.8588 206.605 90.0488 206.005C89.7088 205.765 89.4188 205.485 89.1788 205.165L11.1788 256.645L6.58878 259.675C6.82877 260.095 6.99878 260.535 7.09879 260.995ZM96.4988 204.985C96.4788 205.025 96.4488 205.075 96.4088 205.135L138.229 236.695C139.429 235.375 141.259 234.895 142.909 235.375L161.569 183.175L97.2788 201.295C97.5488 202.555 97.3088 203.875 96.4988 204.985ZM106.429 288.655L138.349 298.945L142.729 244.315C142.069 244.465 141.379 244.465 140.689 244.345L125.929 260.965L105.199 284.365C106.339 285.505 106.789 287.125 106.429 288.655ZM95.9888 205.555C95.2688 206.305 94.3088 206.725 93.3188 206.845L97.8188 247.405L137.359 241.495C136.789 240.115 136.939 238.495 137.839 237.175L95.9888 205.555ZM101.179 283.015L97.3088 248.095L7.18878 261.565C7.22879 261.985 7.20877 262.405 7.12878 262.825L97.5488 286.075C97.7088 285.655 97.9188 285.255 98.1788 284.875C98.9288 283.855 100.009 283.225 101.179 283.015ZM104.659 283.855C104.679 283.875 104.709 283.905 104.749 283.945L121.459 265.075L140.059 244.135C139.659 243.995 139.279 243.795 138.919 243.535C138.379 243.115 137.929 242.605 137.629 242.065L97.8788 248.005L101.779 282.985C102.769 282.925 103.789 283.225 104.659 283.855ZM132.559 371.125L138.289 299.545L106.249 289.195C106.109 289.595 105.919 289.965 105.679 290.305C105.169 290.995 104.509 291.505 103.789 291.835L131.239 371.305C131.679 371.185 132.119 371.125 132.559 371.125ZM194.839 321.415C193.999 320.305 193.699 318.835 194.029 317.485L138.889 299.725L133.159 371.185C133.879 371.275 134.569 371.545 135.199 372.025C135.399 372.165 135.589 372.325 135.769 372.505L194.839 321.415ZM195.619 315.025L164.239 270.865L144.649 243.295C144.269 243.635 143.839 243.895 143.359 244.075L138.949 299.095L194.239 316.915C194.379 316.575 194.559 316.235 194.779 315.895C195.019 315.575 195.299 315.285 195.619 315.025ZM199.369 314.095L214.639 254.155L146.119 240.955C145.999 241.495 145.759 242.035 145.399 242.515C145.299 242.635 145.199 242.755 145.099 242.875L196.099 314.695C197.089 314.095 198.259 313.885 199.369 314.095ZM201.829 315.385L259.159 265.915C258.439 264.955 258.109 263.725 258.259 262.555L215.239 254.275L199.969 314.215C200.419 314.365 200.839 314.575 201.259 314.875C201.459 315.035 201.649 315.205 201.829 315.385ZM260.119 266.875C259.919 266.715 259.729 266.545 259.549 266.365L202.219 315.835C202.909 316.735 203.209 317.875 203.149 318.985L271.279 328.825C271.399 328.135 271.669 327.475 272.089 326.905C272.749 326.005 273.679 325.405 274.669 325.165L263.449 267.715C262.309 267.865 261.139 267.595 260.119 266.875ZM237.769 165.685L215.389 253.675L258.379 261.955C258.529 261.415 258.769 260.875 259.099 260.395C259.729 259.555 260.569 258.985 261.499 258.715L239.389 165.685C238.879 165.775 238.309 165.775 237.769 165.685ZM145.429 237.115C146.089 238.075 146.389 239.245 146.239 240.355L214.789 253.555L237.199 165.535C236.749 165.385 236.299 165.175 235.909 164.875C235.649 164.695 235.419 164.495 235.219 164.275L145.429 237.115ZM234.289 162.655L162.289 182.965L143.509 235.555C143.809 235.675 144.099 235.835 144.379 236.035C144.639 236.215 144.869 236.415 145.069 236.635L234.859 163.795C234.619 163.435 234.429 163.055 234.289 162.655ZM165.379 174.325L162.559 182.275L234.109 162.085C234.109 162.045 234.109 162.015 234.109 161.995L171.259 169.615C171.319 170.665 171.049 171.715 170.389 172.615C169.219 174.235 167.209 174.865 165.379 174.325ZM162.559 172.015L97.1288 200.665C97.1488 200.685 97.1588 200.695 97.1588 200.695L161.839 182.455L164.809 174.145C164.509 174.005 164.219 173.835 163.939 173.635C163.339 173.185 162.859 172.645 162.559 172.015ZM45.3788 70.7947L91.1888 197.905C92.5988 197.395 94.2188 197.545 95.5088 198.505C96.1088 198.925 96.5888 199.495 96.8888 200.125L162.289 171.475C161.809 170.065 161.959 168.445 162.919 167.155C162.919 167.155 162.919 167.145 162.919 167.125L47.2688 69.4447C46.7588 70.0747 46.0988 70.5247 45.3788 70.7947ZM41.3888 70.4648L18.2888 111.445C18.3488 111.485 18.4188 111.525 18.4988 111.565C20.5388 113.065 21.0188 115.975 19.5188 118.045C19.3588 118.245 19.1988 118.425 19.0388 118.585L78.4388 186.085L89.6588 198.835C89.9588 198.555 90.2888 198.325 90.6488 198.145L44.7788 70.9748C43.6688 71.2448 42.4388 71.0947 41.3888 70.4648ZM-2.71124 81.1447L13.7888 111.115C15.0488 110.545 16.4888 110.545 17.7788 111.145L40.8788 70.1048C40.0988 69.5048 39.5888 68.7248 39.3188 67.8548L-2.71124 81.1447ZM-10.8112 64.0447C-11.0512 64.3847 -11.3312 64.6747 -11.6512 64.9147L-3.01123 80.6048L39.1388 67.2548C39.0788 66.8947 39.0588 66.5348 39.0788 66.1748L-9.97122 61.9147C-10.0612 62.6647 -10.3312 63.3847 -10.8112 64.0447ZM46.5488 -86.7952L-12.5212 57.1748C-12.2812 57.2948 -12.0512 57.4347 -11.8312 57.5947C-10.9612 58.1947 -10.3912 59.0648 -10.1212 60.0247L100.069 35.3347C99.8888 34.1648 100.159 32.9348 100.909 31.8847C101.329 31.2848 101.869 30.8347 102.469 30.5348L49.7888 -86.9153C48.7688 -86.4952 47.6288 -86.4652 46.5488 -86.7952ZM-32.9212 -5.28525C-31.4512 -3.69525 -31.2412 -1.23526 -32.5612 0.594727C-33.0712 1.28473 -33.7612 1.79477 -34.5412 2.12476L-15.7612 56.8748C-14.8912 56.6348 -13.9612 56.6347 -13.0612 56.9348L46.0088 -87.0352C45.7688 -87.1552 45.5388 -87.2953 45.3188 -87.4553C45.2188 -87.5352 45.1188 -87.6152 45.0188 -87.6952L-32.9212 -5.28525ZM-53.6812 -101.705L-36.8212 -6.72528C-35.7112 -6.84528 -34.5712 -6.57526 -33.5812 -5.88525C-33.5012 -5.82526 -33.4312 -5.75522 -33.3712 -5.67523L44.5988 -88.0852C43.1588 -89.6753 42.9788 -92.1053 44.2988 -93.9052C44.3188 -93.9453 44.3388 -93.9753 44.3588 -93.9952L-2.9512 -132.215C-4.51123 -130.535 -7.15121 -130.235 -9.07123 -131.615C-9.49121 -131.945 -9.85123 -132.305 -10.1512 -132.725L-50.5612 -108.455C-49.7212 -106.955 -49.7812 -105.005 -50.8612 -103.505C-51.5812 -102.545 -52.5712 -101.945 -53.6812 -101.705ZM-111.161 11.6048C-111.021 11.6848 -110.871 11.7748 -110.711 11.8748C-109.871 12.5048 -109.301 13.3748 -109.001 14.3047L-40.8712 -1.38525C-41.0512 -2.55527 -40.8112 -3.81525 -40.0612 -4.86523C-39.3712 -5.76526 -38.4412 -6.36526 -37.4212 -6.63525L-54.2512 -101.615C-55.0312 -101.555 -55.7812 -101.705 -56.5012 -102.005L-111.161 11.6048ZM-87.5512 -47.2852C-87.5312 -47.2852 -87.5212 -47.2753 -87.5212 -47.2552C-86.0512 -46.2053 -85.3912 -44.4353 -85.6612 -42.7552L-59.1712 -97.8352L-87.5512 -47.2852ZM-91.4512 -39.0652L-110.081 7.91473L-86.8012 -40.4153C-88.0012 -39.0952 -89.8012 -38.6152 -91.4512 -39.0652ZM-133.361 -12.8753L-115.871 11.6947C-114.731 10.9747 -113.321 10.8247 -112.031 11.2148L-92.0212 -39.2452C-92.3612 -39.3853 -92.6712 -39.5652 -92.9512 -39.7852C-93.2512 -40.0052 -93.5212 -40.2552 -93.7612 -40.5352L-133.361 -12.8753ZM-157.661 -47.0153L-133.721 -13.3553L-94.1212 -40.9853C-94.6312 -41.7953 -94.9012 -42.7253 -94.8712 -43.6553L-156.011 -49.8353C-156.131 -49.1453 -156.401 -48.4553 -156.821 -47.8553C-157.061 -47.5352 -157.341 -47.2552 -157.661 -47.0153ZM-170.141 8.69473C-169.571 8.81473 -169.001 9.08475 -168.491 9.44473C-168.151 9.70474 -167.851 9.99475 -167.591 10.3148L-134.201 -13.0253L-158.141 -46.6553C-159.011 -46.1153 -160.031 -45.8752 -161.021 -45.9952L-162.101 -39.6353L-170.141 8.69473ZM-172.001 17.7548L-173.171 22.4348L-118.031 15.9248C-118.031 15.8648 -118.031 15.8148 -118.031 15.7748L-166.601 13.7048C-166.691 14.4848 -166.961 15.2648 -167.441 15.9248C-168.521 17.4248 -170.321 18.0547 -172.001 17.7548ZM-250.511 31.6147L-173.801 22.5247L-172.601 17.6348C-173.051 17.4847 -173.501 17.2448 -173.921 16.9447C-174.761 16.3447 -175.331 15.4747 -175.631 14.5447L-250.511 31.6147ZM-204.881 137.635C-204.071 137.335 -203.201 137.215 -202.331 137.395L-173.951 23.1248L-251.441 32.3047C-251.381 33.3548 -251.681 34.4048 -252.311 35.2747C-252.731 35.8448 -253.241 36.2647 -253.781 36.5947L-204.881 137.635ZM-271.061 159.835L-138.581 221.725L-200.471 145.675C-202.031 146.815 -204.221 146.845 -205.871 145.645C-207.581 144.415 -208.181 142.255 -207.521 140.365L-270.851 157.255C-270.671 158.095 -270.731 158.995 -271.061 159.835Z" fill="#00A8E8"/>
</g>
<path fill-rule="evenodd" clip-rule="evenodd" d="M-199.918 -117.81C-198.778 -118.26 -197.548 -118.02 -196.678 -117.33L-166.528 -148.17C-166.798 -148.47 -167.038 -148.83 -167.188 -149.22C-167.848 -150.9 -167.038 -152.76 -165.358 -153.42C-163.678 -154.08 -161.788 -153.27 -161.128 -151.59C-161.128 -151.55 -161.118 -151.51 -161.098 -151.47L-115.888 -161.61C-115.918 -162.93 -115.108 -164.19 -113.818 -164.7C-112.138 -165.33 -110.278 -164.52 -109.618 -162.84C-109.108 -161.58 -109.468 -160.17 -110.398 -159.3L-98.9683 -141.63L-77.3683 -108.21C-77.3483 -108.23 -77.3383 -108.24 -77.3383 -108.24C-75.6583 -108.9 -73.7682 -108.06 -73.1082 -106.41C-72.4782 -104.73 -73.2883 -102.84 -74.9683 -102.18C-75.4783 -101.97 -76.0182 -101.91 -76.5583 -101.97L-86.7883 -51.2703C-85.8883 -50.9703 -85.1083 -50.3103 -84.7483 -49.3503C-84.2683 -48.0903 -84.5983 -46.7103 -85.4983 -45.8403L-39.4483 13.8597C-39.2883 13.7597 -39.1283 13.6697 -38.9683 13.5897C-37.2883 12.9597 -35.3983 13.7697 -34.7383 15.4497C-34.4383 16.2297 -34.4683 17.0397 -34.7383 17.7597L2.34171 35.5797C2.70172 34.9797 3.24173 34.4997 3.93173 34.2297C5.61172 33.5697 7.50171 34.3797 8.16171 36.0597C8.46173 36.8697 8.43173 37.7397 8.13171 38.4897L67.4417 69.9897C67.7717 69.4497 68.3117 68.9997 68.9717 68.7597C70.6217 68.0997 72.5117 68.9097 73.1717 70.5897C73.8317 72.2697 72.9917 74.1598 71.3417 74.8198C70.6217 75.0898 69.9017 75.0897 69.2417 74.9097L52.8917 116.25C53.5817 116.61 54.1517 117.18 54.4517 117.96C55.0517 119.46 54.4517 121.14 53.1017 121.95L99.0017 217.86L98.7317 217.98C99.8417 217.56 101.012 217.77 101.882 218.43L129.992 187.44C129.722 187.17 129.512 186.84 129.362 186.45C128.702 184.77 129.512 182.88 131.192 182.22C132.872 181.56 134.732 182.4 135.392 184.08C135.812 185.1 135.662 186.18 135.092 187.05L205.592 243.69C205.892 243.39 206.252 243.15 206.642 243C207.932 242.49 209.342 242.85 210.212 243.81L239.882 219.66C239.782 219.5 239.702 219.34 239.642 219.18C238.982 217.5 239.792 215.64 241.472 214.98C243.152 214.32 245.042 215.13 245.702 216.81C246.062 217.74 245.972 218.73 245.522 219.57L332.072 285.36C332.402 285 332.792 284.73 333.272 284.52C334.952 283.86 336.842 284.7 337.502 286.38C338.132 288.03 337.322 289.92 335.642 290.58C334.292 291.12 332.792 290.67 331.922 289.59L270.032 330.66C270.092 330.78 270.152 330.9 270.212 331.02C270.842 332.7 270.032 334.56 268.352 335.22C266.702 335.88 264.812 335.07 264.152 333.39C263.702 332.22 263.972 330.93 264.752 330.06L230.222 293.37C229.982 293.55 229.712 293.7 229.412 293.82C228.272 294.27 227.012 294.03 226.142 293.28L202.472 316.47C202.652 316.71 202.802 316.97 202.922 317.25C203.552 318.93 202.742 320.82 201.062 321.48C199.412 322.11 197.552 321.3 196.862 319.68L154.112 330.87C154.442 332.4 153.632 333.99 152.132 334.56C151.682 334.74 151.202 334.8 150.752 334.77L144.092 377.43C145.082 377.7 145.922 378.39 146.312 379.41C146.972 381.06 146.162 382.95 144.482 383.61C142.802 384.27 140.942 383.46 140.282 381.78C140.132 381.39 140.042 381 140.042 380.61L101.252 377.1C101.072 378.18 100.352 379.11 99.2717 379.56C98.4617 379.86 97.5917 379.83 96.8417 379.53L71.6117 428.04C72.1817 428.4 72.6317 428.94 72.9017 429.6C73.5617 431.25 72.7217 433.14 71.0417 433.8C69.3917 434.46 67.5017 433.65 66.8417 431.97C66.4217 430.92 66.6017 429.78 67.2017 428.91L7.20172 377.76C6.90173 378.06 6.51175 378.3 6.12173 378.45C6.02173 378.49 5.93173 378.52 5.85175 378.54L-17.0683 418.98C-16.5583 419.34 -16.1383 419.82 -15.8983 420.45C-15.2383 422.13 -16.0482 424.02 -17.7283 424.65C-19.4083 425.31 -21.2682 424.5 -21.9283 422.82C-22.5883 421.14 -21.7783 419.28 -20.0983 418.62C-19.9983 418.58 -19.8983 418.54 -19.7983 418.5L-38.5183 316.83H-38.7283L-38.5782 316.5L-38.7883 315.3L-38.3083 315.96L-10.4083 261.72C-10.9482 261.36 -11.3983 260.85 -11.6683 260.19C-12.1783 258.87 -11.7883 257.4 -10.7683 256.53L-38.5782 217.14C-38.7183 217.22 -38.8683 217.29 -39.0283 217.35C-40.6783 218.01 -42.5683 217.2 -43.2283 215.52C-43.8583 213.96 -43.1683 212.19 -41.6983 211.44L-146.818 133.02C-147.148 133.38 -147.568 133.68 -148.048 133.86C-149.728 134.52 -151.618 133.71 -152.278 132.03C-152.908 130.35 -152.098 128.46 -150.418 127.8C-149.758 127.56 -149.038 127.53 -148.378 127.71L-110.248 26.1297C-110.968 25.7997 -111.538 25.1997 -111.868 24.3897C-112.138 23.6697 -112.138 22.8897 -111.928 22.1997L-154.078 4.01974C-154.408 4.64975 -155.008 5.18973 -155.728 5.45972C-157.408 6.11972 -159.298 5.30972 -159.958 3.62973C-160.408 2.42972 -160.108 1.10971 -159.298 0.239716L-186.988 -31.0803C-187.208 -30.9003 -187.458 -30.7603 -187.738 -30.6602C-189.388 -30.0002 -191.278 -30.8403 -191.938 -32.4903C-192.598 -34.1703 -191.758 -36.0603 -190.108 -36.7203C-189.928 -36.7803 -189.758 -36.8303 -189.598 -36.8703L-198.628 -111.54C-199.948 -111.51 -201.238 -112.29 -201.748 -113.61C-202.408 -115.29 -201.568 -117.18 -199.918 -117.81ZM-132.898 -135.09L-78.5983 -107.34C-78.3983 -107.56 -78.1682 -107.76 -77.9083 -107.94L-97.9183 -138.9L-110.878 -158.94C-111.058 -158.82 -111.248 -158.72 -111.448 -158.64C-112.498 -158.22 -113.638 -158.4 -114.508 -159L-132.898 -135.09ZM2.64172 39.2997L-41.1583 69.5097C-41.0782 69.6497 -41.0083 69.7897 -40.9483 69.9297C-40.8483 70.2297 -40.7783 70.5297 -40.7383 70.8297L2.64172 71.0698L4.62173 40.4397C3.84174 40.3197 3.1517 39.9297 2.64172 39.2997ZM3.18173 71.6697L0.0317383 120.54C0.75174 120.66 1.44174 121.02 1.95172 121.59L67.3817 73.4397C67.2817 73.2997 67.2017 73.1397 67.1417 72.9597C67.0217 72.6597 66.9517 72.3597 66.9317 72.0597L3.18173 71.6697ZM94.8317 376.14C94.9517 374.97 95.7017 373.92 96.8717 373.47C97.3817 373.26 97.9217 373.2 98.4317 373.26L105.542 340.38L91.5617 376.11L94.8317 376.14ZM70.7417 427.62L90.6917 376.68L8.13171 375.72C8.07172 376.29 7.89172 376.8 7.56171 377.25L67.5917 428.4C67.8917 428.13 68.2517 427.89 68.6717 427.71C69.3617 427.44 70.0817 427.44 70.7417 427.62ZM-78.7183 137.88L-93.3582 108.87C-94.8582 109.47 -96.5683 108.84 -97.3483 107.46L-146.188 129.72C-146.068 130.1 -146.008 130.47 -146.008 130.83L-78.7183 137.88ZM-173.698 -103.05L-165.178 -98.9103C-164.848 -99.5103 -164.278 -99.9902 -163.588 -100.26C-163.328 -100.36 -163.068 -100.43 -162.808 -100.47L-164.008 -147.18C-164.088 -147.18 -164.158 -147.18 -164.218 -147.18L-173.698 -103.05ZM-161.848 -92.6703L-157.648 -16.1703L-148.558 -10.9803C-148.198 -11.4903 -147.718 -11.8803 -147.088 -12.1203C-146.988 -12.1603 -146.888 -12.2003 -146.788 -12.2403L-149.398 -26.0703L-161.848 -92.6703ZM-144.238 -11.8802L-108.418 -61.4703L-159.838 -95.2203C-160.198 -94.8003 -160.648 -94.4402 -161.188 -94.2303C-161.288 -94.1902 -161.388 -94.1503 -161.488 -94.1102L-155.248 -60.7203L-146.188 -12.3303C-145.498 -12.3903 -144.808 -12.2403 -144.238 -11.8802ZM-173.818 -102.45L-187.918 -36.8403L-163.918 -94.3802C-164.578 -94.7402 -165.118 -95.3102 -165.418 -96.0602C-165.718 -96.8403 -165.688 -97.6503 -165.418 -98.3703L-173.818 -102.45ZM-185.938 -32.4003L-158.248 -16.5302L-162.508 -94.0203C-162.808 -94.0203 -163.098 -94.0703 -163.378 -94.1703L-187.378 -36.6003C-186.718 -36.2403 -186.178 -35.6703 -185.878 -34.9203C-185.548 -34.0803 -185.578 -33.1503 -185.938 -32.4003ZM-186.538 -31.5003L-158.818 -0.210297C-158.598 -0.390289 -158.358 -0.530243 -158.098 -0.630249C-157.858 -0.710266 -157.618 -0.770294 -157.378 -0.810272L-158.218 -15.8102L-186.238 -31.8603C-186.318 -31.7402 -186.418 -31.6203 -186.538 -31.5003ZM-148.348 -6.99026C-148.588 -7.25027 -148.778 -7.56027 -148.918 -7.92026C-149.248 -8.79028 -149.188 -9.69028 -148.858 -10.4703L-157.588 -15.4803L-156.778 -0.840271C-156.088 -0.810272 -155.428 -0.570251 -154.888 -0.150269L-148.348 -6.99026ZM-143.248 -7.23026L-111.058 20.8197C-110.758 20.5197 -110.428 20.3097 -110.008 20.1297C-109.408 19.9197 -108.778 19.8597 -108.208 19.9797L-102.688 1.37973L-142.828 -8.07028C-142.928 -7.77026 -143.068 -7.49026 -143.248 -7.23026ZM-105.568 23.1597C-105.568 23.7597 -105.748 24.3297 -106.048 24.8397L-63.4783 56.2797L-39.8683 19.0497C-40.2583 18.6897 -40.5883 18.2697 -40.7983 17.7597C-40.8983 17.4997 -40.9583 17.2397 -40.9783 16.9797L-105.568 23.1597ZM98.6717 223.95L82.1717 250.2L91.2617 258.81C91.4617 258.67 91.6817 258.55 91.9217 258.45C92.4317 258.24 92.9417 258.18 93.4517 258.24L99.2417 224.13C99.0417 224.09 98.8517 224.03 98.6717 223.95ZM209.042 249C208.682 249.12 208.292 249.21 207.932 249.21L203.432 289.62L225.032 290.34C225.152 289.35 225.752 288.45 226.652 287.94L209.042 249ZM205.202 247.83L135.362 286.2C135.382 286.24 135.402 286.28 135.422 286.32C135.542 286.64 135.612 286.97 135.632 287.31L202.802 289.59L207.332 249.18C206.462 249.03 205.712 248.55 205.202 247.83ZM-91.2883 106.11L-41.8183 114.84L-44.0983 74.3097C-45.0283 74.2797 -45.8983 73.8597 -46.4983 73.1397L-91.6783 104.25C-91.6183 104.37 -91.5583 104.5 -91.4983 104.64C-91.3183 105.12 -91.2583 105.63 -91.2883 106.11ZM-41.1883 114.96L-3.05829 121.68C-2.8783 121.46 -2.66827 121.26 -2.42825 121.08L-42.1483 73.7397C-42.3483 73.8797 -42.5683 73.9998 -42.8083 74.0997C-43.0283 74.1797 -43.2583 74.2397 -43.4983 74.2797L-41.1883 114.96ZM-41.1583 115.59L-39.8383 138.99C-38.7883 139.05 -37.8282 139.59 -37.2582 140.49L-34.3183 138.99L-3.71826 123.45C-3.68826 123.03 -3.56827 122.64 -3.38828 122.25L-41.1583 115.59ZM-36.8683 143.07L-13.8582 151.89L-2.81827 126C-3.11829 125.7 -3.35828 125.34 -3.5083 124.92C-3.60828 124.66 -3.67828 124.4 -3.71826 124.14L-34.0483 139.56L-36.9883 141.06C-36.7183 141.72 -36.7183 142.44 -36.8683 143.07ZM-91.6483 107.4L-42.5082 140.16C-42.1783 139.74 -41.7283 139.44 -41.1883 139.23C-40.9483 139.13 -40.6983 139.06 -40.4383 139.02L-41.7582 115.47L-91.3783 106.71C-91.4383 106.95 -91.5283 107.18 -91.6483 107.4ZM-39.2083 211.2L-14.0983 152.43L-37.0782 143.64C-37.4383 144.36 -38.0383 144.96 -38.8183 145.26C-39.0983 145.38 -39.3783 145.45 -39.6583 145.47L-39.8983 211.08C-39.6583 211.1 -39.4283 211.14 -39.2083 211.2ZM-38.6383 211.44C-38.4183 211.58 -38.2083 211.74 -38.0082 211.92L-17.6983 193.68L13.7117 165.45C13.5517 165.25 13.4317 165.03 13.3517 164.79C13.0817 164.16 13.0517 163.5 13.2017 162.9L-13.5583 152.67L-38.6383 211.44ZM6.33173 372.45L35.0417 325.23L19.1718 322.59C18.9317 323.58 18.2117 324.42 17.2217 324.81C16.7117 324.99 16.1717 325.05 15.6617 324.99L11.9417 343.05L5.88171 372.27C6.04172 372.31 6.19171 372.37 6.33173 372.45ZM60.6317 234.33L37.5617 279.9L54.4217 287.67C54.7817 287.13 55.3217 286.68 55.9517 286.44C56.3417 286.29 56.7317 286.2 57.0917 286.2L61.2617 234.51C61.0417 234.47 60.8317 234.41 60.6317 234.33ZM37.2917 280.44L17.7617 319.02C17.9817 319.16 18.1917 319.33 18.3917 319.53L54.4217 291.21C54.3017 291.03 54.2017 290.84 54.1217 290.64C53.7917 289.83 53.8217 288.96 54.1517 288.21L37.2917 280.44ZM35.3717 324.66L55.2017 292.05C55.0617 291.95 54.9217 291.83 54.7817 291.69L31.6217 309.9L18.7517 320.01C18.8717 320.19 18.9717 320.38 19.0517 320.58C19.2317 321.06 19.2917 321.54 19.2617 321.99L35.3717 324.66ZM36.0017 324.78L103.532 335.97C103.652 335.52 103.862 335.13 104.132 334.77L59.2817 291.9C58.9817 292.14 58.6817 292.35 58.3217 292.47C57.4517 292.83 56.4917 292.74 55.7117 292.38L36.0017 324.78ZM105.812 333.63L97.7117 288.69L60.3617 289.65C60.3317 290.31 60.0917 290.94 59.6717 291.45L104.522 334.32C104.822 334.08 105.122 333.9 105.482 333.75C105.582 333.71 105.692 333.67 105.812 333.63ZM97.6217 288.09L93.3917 264.69C92.3717 264.78 91.3517 264.36 90.6617 263.58L60.0617 288.03C60.1017 288.11 60.1317 288.19 60.1517 288.27C60.2517 288.53 60.3217 288.79 60.3617 289.05L97.6217 288.09ZM90.8117 259.2L81.8717 250.71L59.1017 286.86C59.3417 287.04 59.5517 287.26 59.7317 287.52L90.3317 263.1C90.2517 262.96 90.1817 262.81 90.1217 262.65C89.6117 261.42 89.9417 260.07 90.8117 259.2ZM81.4217 250.29L63.9617 233.76C63.6917 234 63.3617 234.21 63.0017 234.33C62.6117 234.48 62.2517 234.57 61.8617 234.57L57.8717 286.29C58.1317 286.35 58.3717 286.44 58.5917 286.56L81.4217 250.29ZM15.6617 166.71L1.59171 220.92L58.6817 230.46C58.8617 229.83 59.2517 229.23 59.7617 228.78L42.6017 203.37L17.7317 166.53C17.6917 166.55 17.6417 166.56 17.5817 166.56C16.9517 166.83 16.2917 166.86 15.6617 166.71ZM-5.48828 258.03C-5.27829 258.69 -5.30826 259.38 -5.54828 260.01L37.0517 279.63L60.0917 234.06C59.6117 233.73 59.1917 233.31 58.9217 232.77L-5.48828 258.03ZM-7.13828 261.81L15.1517 318.63C15.8417 318.42 16.5917 318.48 17.2217 318.72L36.7517 280.14L-5.78827 260.55C-6.08829 261.09 -6.56827 261.54 -7.13828 261.81ZM14.3117 318.99L-1.37827 318.33L4.89172 372.12C5.03171 372.12 5.16171 372.12 5.28174 372.12L12.3617 338.01L15.0917 324.84C14.1917 324.57 13.3817 323.88 13.0217 322.92C12.4518 321.45 13.0217 319.8 14.3117 318.99ZM103.562 337.62C103.462 337.26 103.422 336.89 103.442 336.51L35.7017 325.29L6.87173 372.72C7.26175 373.02 7.6217 373.41 7.86172 373.86L103.562 337.62ZM107.912 333.75L130.652 290.22C130.112 289.86 129.662 289.35 129.392 288.69C129.292 288.41 129.232 288.14 129.212 287.88L98.3417 288.66L106.412 333.54C106.922 333.48 107.462 333.57 107.912 333.75ZM129.572 285.96L95.6717 263.49C95.3417 263.91 94.8917 264.27 94.3517 264.48C94.2317 264.52 94.1217 264.56 94.0217 264.6L98.2517 288.09L129.182 287.28C129.212 286.8 129.362 286.35 129.572 285.96ZM97.0217 222.33L65.0417 230.76C65.1917 231.69 64.9517 232.62 64.3817 233.31L81.7517 249.78L98.1917 223.68C97.7117 223.35 97.2917 222.9 97.0217 222.33ZM97.0817 219.51L18.7517 165.81C18.5917 165.97 18.4217 166.11 18.2417 166.23L21.9017 171.63L60.2717 228.45C60.3917 228.39 60.5117 228.33 60.6317 228.27C62.3117 227.64 64.2017 228.45 64.8617 230.13C64.8617 230.15 64.8717 230.17 64.8917 230.19L96.8417 221.76C96.6317 220.98 96.7217 220.2 97.0817 219.51ZM14.6417 160.83L0.601746 126.75C-0.418274 127.11 -1.46826 126.93 -2.27826 126.36L-13.2582 152.07L13.4117 162.3C13.6817 161.7 14.1017 161.19 14.6417 160.83ZM-46.7083 69.3897L-63.2683 57.1497L-92.4883 103.26C-92.3083 103.4 -92.1383 103.56 -91.9783 103.74L-46.7683 72.6597C-46.8483 72.5197 -46.9183 72.3797 -46.9783 72.2397C-47.3683 71.2797 -47.2183 70.2297 -46.7083 69.3897ZM-107.938 26.2797L-94.7383 102.57C-94.1383 102.54 -93.5383 102.66 -92.9983 102.93L-63.7783 56.7897L-106.348 25.3197C-106.678 25.6797 -107.098 25.9797 -107.608 26.1897C-107.708 26.2297 -107.818 26.2597 -107.938 26.2797ZM-77.9683 137.94L-43.1683 141.57C-43.0883 141.23 -42.9683 140.91 -42.8083 140.61L-91.9483 107.88C-92.1683 108.14 -92.4383 108.37 -92.7583 108.57L-77.9683 137.94ZM-77.6383 138.57L-41.0683 211.17C-40.8683 211.11 -40.6583 211.07 -40.4383 211.05L-40.2283 145.47C-41.4283 145.38 -42.5383 144.6 -43.0183 143.4C-43.1683 143.01 -43.2283 142.59 -43.2283 142.2L-77.6383 138.57ZM-36.9283 214.5L0.991699 220.83L15.0917 166.53C14.7317 166.35 14.4017 166.14 14.1317 165.87L-37.5583 212.31C-37.3783 212.55 -37.2383 212.8 -37.1383 213.06C-36.9583 213.54 -36.8983 214.02 -36.9283 214.5ZM-7.49826 255.87C-6.74826 256.14 -6.08826 256.71 -5.69827 257.46L58.7117 232.2C58.5917 231.82 58.5517 231.44 58.5917 231.06L1.44171 221.52L-7.49826 255.87ZM-7.94827 262.08L-1.46826 317.73L14.4017 318.39L-7.70825 262.02C-7.78824 262.04 -7.86826 262.06 -7.94827 262.08ZM-2.0083 318.3L-37.6183 316.77L3.27173 372.57C3.43173 372.47 3.60172 372.39 3.78174 372.33C3.94171 372.27 4.11172 372.22 4.29172 372.18L-2.0083 318.3ZM90.9317 376.05L105.182 339.63C104.582 339.33 104.042 338.82 103.742 338.16L8.19171 374.37L8.07175 374.55C8.13174 374.73 8.16171 374.91 8.16171 375.09L90.9317 376.05ZM141.002 378.21L122.432 356.04L100.742 374.55C100.882 374.77 101.002 375 101.102 375.24C101.252 375.63 101.342 376.02 101.342 376.41L140.132 379.92C140.222 379.26 140.552 378.69 141.002 378.21ZM122.042 355.59L108.482 339.39C108.282 339.55 108.072 339.67 107.852 339.75C107.312 339.96 106.772 340.02 106.262 339.96L99.0617 373.32C99.5417 373.47 99.9917 373.74 100.352 374.1L122.042 355.59ZM122.492 355.2L148.232 333.24C148.112 333.06 148.012 332.86 147.932 332.64C147.852 332.42 147.792 332.21 147.752 332.01L109.892 336.63C109.922 337.53 109.562 338.4 108.932 339.03L122.492 355.2ZM196.682 318.81C196.622 318.3 196.652 317.82 196.802 317.37L135.212 289.08C134.852 289.71 134.282 290.22 133.562 290.49C132.752 290.82 131.912 290.76 131.162 290.46L108.422 334.02C108.962 334.35 109.412 334.89 109.682 335.55C109.702 335.63 109.732 335.72 109.772 335.82L196.682 318.81ZM149.222 328.71L114.962 335.43L147.692 331.41C147.722 330.33 148.292 329.31 149.222 328.71ZM197.012 316.83C197.372 316.17 197.942 315.63 198.692 315.33C199.112 315.18 199.532 315.09 199.952 315.12L202.742 290.16L135.602 287.88C135.582 288.1 135.532 288.32 135.452 288.54L197.012 316.83ZM202.052 315.93L225.692 292.77C225.492 292.51 225.322 292.22 225.182 291.9C225.062 291.58 224.992 291.25 224.972 290.91L203.342 290.19L200.552 315.18C201.092 315.3 201.602 315.57 202.052 315.93ZM230.642 292.86L264.692 329.07L209.642 248.88L227.162 287.64C228.812 287.1 230.612 287.91 231.242 289.53C231.722 290.7 231.422 291.99 230.642 292.86ZM266.192 329.01L251.522 260.55L210.842 247.17C210.662 247.62 210.362 248.01 210.002 248.34L265.592 329.28C265.712 329.22 265.842 329.16 265.982 329.1C266.042 329.08 266.112 329.05 266.192 329.01ZM204.662 246.66L132.662 256.38V284.25C133.622 284.34 134.492 284.85 135.062 285.66L204.872 247.29C204.852 247.23 204.832 247.17 204.812 247.11C204.752 246.97 204.702 246.82 204.662 246.66ZM132.062 256.47L96.3317 261.3C96.3617 261.9 96.2117 262.47 95.9417 262.98L129.842 285.45C130.172 285 130.622 284.67 131.192 284.46C131.472 284.34 131.762 284.27 132.062 284.25V256.47ZM132.062 255.84V188.4C131.742 188.36 131.442 188.28 131.162 188.16L94.8317 258.69C95.4017 259.05 95.8517 259.56 96.1217 260.22C96.1817 260.38 96.2217 260.54 96.2417 260.7L132.062 255.84ZM130.412 187.74L102.332 218.7C102.572 219 102.812 219.33 102.962 219.72C103.592 221.37 102.782 223.26 101.102 223.92C100.682 224.1 100.262 224.16 99.8117 224.16L94.0217 258.27C94.1217 258.31 94.2217 258.35 94.3217 258.39L130.622 187.86C130.562 187.82 130.492 187.78 130.412 187.74ZM98.4617 218.01L52.5617 122.07C51.5717 122.43 50.4917 122.28 49.6517 121.74L18.6017 161.13C18.9317 161.46 19.2017 161.85 19.3817 162.3C19.7717 163.32 19.6217 164.43 19.0817 165.27L97.3217 218.94C97.6217 218.55 98.0117 218.22 98.4617 218.01ZM48.2417 119.61L42.0917 120.15L18.8117 159.9L49.2017 121.38C48.8717 121.05 48.5717 120.66 48.3917 120.21C48.3317 120.01 48.2817 119.81 48.2417 119.61ZM41.3417 120.21L2.76172 123.63C2.73172 124.8 2.13171 125.88 1.08173 126.45L15.1517 160.47C16.0217 160.14 16.9517 160.2 17.7317 160.56L41.3417 120.21ZM41.7017 119.58L68.2517 74.2797C68.0517 74.1397 67.8717 73.9797 67.7117 73.7997L2.28174 121.92C2.36172 122.08 2.44174 122.25 2.52173 122.43C2.60175 122.61 2.65173 122.81 2.67175 123.03L41.7017 119.58ZM2.58173 71.5497L-40.7683 71.3097C-40.8583 72.0297 -41.1583 72.7497 -41.6983 73.2597L-1.91827 120.69C-1.83829 120.65 -1.76828 120.61 -1.70828 120.57C-1.3483 120.45 -0.958282 120.36 -0.598267 120.36L2.58173 71.5497ZM-38.5183 19.6497C-38.8383 19.5697 -39.1383 19.4497 -39.4183 19.2897L-63.0283 56.5497L-46.4083 68.8198C-46.0782 68.4597 -45.6883 68.1597 -45.1783 67.9497C-44.7883 67.7997 -44.3383 67.7097 -43.9483 67.7397L-38.5183 19.6497ZM-40.9183 15.8397L-102.088 1.40973L-107.608 20.0397C-106.798 20.3697 -106.138 20.9998 -105.778 21.8698C-105.718 22.0697 -105.668 22.2697 -105.628 22.4698L-40.9783 16.2897C-40.9783 16.1297 -40.9583 15.9797 -40.9183 15.8397ZM-88.8883 -45.2703C-89.4283 -45.4803 -89.8783 -45.8102 -90.2683 -46.2603L-100.888 -39.1203L-143.038 -10.7703C-142.958 -10.6503 -142.898 -10.5302 -142.858 -10.4102C-142.648 -9.87024 -142.588 -9.30023 -142.648 -8.76025L-102.508 0.719757L-88.8883 -45.2703ZM-90.5683 -49.8903L-107.908 -61.2603L-143.728 -11.6703C-143.588 -11.5503 -143.458 -11.4203 -143.338 -11.2802L-90.5683 -46.7403C-90.6483 -46.8603 -90.7083 -46.9903 -90.7483 -47.1302C-91.1383 -48.0602 -91.0183 -49.0803 -90.5683 -49.8903ZM-78.4483 -103.08C-78.7183 -103.38 -78.9583 -103.74 -79.1383 -104.16C-79.2783 -104.52 -79.3483 -104.88 -79.3483 -105.24L-159.118 -97.3802C-159.118 -96.8403 -159.268 -96.3003 -159.508 -95.8503L-108.058 -62.0703L-78.4483 -103.08ZM-133.258 -134.73L-160.168 -99.7203C-159.838 -99.4203 -159.538 -99.0002 -159.358 -98.5503C-159.278 -98.3503 -159.228 -98.1603 -159.208 -97.9803L-79.3183 -105.84C-79.2583 -106.23 -79.1383 -106.62 -78.9283 -106.98L-133.258 -134.73ZM-133.798 -135L-161.248 -149.04C-161.608 -148.35 -162.208 -147.81 -162.958 -147.51C-163.098 -147.45 -163.248 -147.4 -163.408 -147.36L-162.178 -100.59C-161.638 -100.53 -161.128 -100.38 -160.648 -100.08L-133.798 -135ZM-166.078 -147.9L-196.228 -117.03C-196.008 -116.77 -195.828 -116.46 -195.688 -116.1C-195.388 -115.32 -195.388 -114.51 -195.658 -113.79L-174.268 -103.41L-164.818 -147.36C-165.268 -147.45 -165.688 -147.63 -166.078 -147.9ZM-188.998 -37.0503C-188.838 -37.0703 -188.678 -37.0703 -188.518 -37.0503L-174.388 -102.81L-195.928 -113.25C-196.288 -112.65 -196.828 -112.17 -197.518 -111.9C-197.678 -111.84 -197.848 -111.79 -198.028 -111.75L-188.998 -37.0503ZM-111.688 21.5397C-111.608 21.4197 -111.528 21.3097 -111.448 21.2097L-143.638 -6.84027C-143.938 -6.54028 -144.298 -6.33026 -144.718 -6.15027C-145.828 -5.73026 -147.028 -5.94025 -147.928 -6.63025L-154.468 0.209717C-154.228 0.479736 -154.018 0.779724 -153.898 1.13971C-153.598 1.85971 -153.598 2.63974 -153.808 3.32974L-111.688 21.5397ZM-147.838 127.8C-147.268 128.07 -146.758 128.52 -146.428 129.12L-97.6183 106.83C-98.1883 105.21 -97.3483 103.38 -95.7283 102.75C-95.6083 102.71 -95.4983 102.67 -95.3983 102.63L-108.598 26.3397C-108.978 26.3797 -109.348 26.3497 -109.708 26.2497L-147.838 127.8ZM-42.2383 210.18L-78.4183 138.42L-146.068 131.34C-146.148 131.72 -146.288 132.07 -146.488 132.39L-42.2383 210.18ZM-10.2582 256.08C-10.1183 256 -9.97827 255.93 -9.83829 255.87C-9.26828 255.63 -8.66827 255.6 -8.12827 255.69L0.781738 221.37L-37.0782 215.04C-37.2283 215.67 -37.5883 216.24 -38.0983 216.69L-10.2582 256.08ZM-37.7683 316.14L-2.09827 317.67L-8.54828 262.14C-8.99826 262.14 -9.44827 262.05 -9.83829 261.9L-37.7683 316.14ZM5.10175 378.57C3.72174 378.63 2.4317 377.85 1.89172 376.5C1.38171 375.18 1.77173 373.77 2.76172 372.87L-37.7383 317.64L-19.1983 418.29C-18.6283 418.23 -18.0883 418.32 -17.5782 418.56L5.10175 378.57ZM96.3317 379.14C95.7617 378.78 95.3117 378.27 95.0417 377.61C94.9417 377.29 94.8717 376.98 94.8317 376.68L91.3517 376.62L72.2117 425.52L96.3317 379.14ZM150.182 334.59C149.582 334.44 149.042 334.14 148.622 333.69L122.912 355.65L141.482 377.82C141.682 377.68 141.902 377.56 142.142 377.46C142.592 377.28 143.072 377.22 143.522 377.25L150.182 334.59ZM190.622 320.58L151.532 328.23C152.612 328.44 153.542 329.13 153.962 330.21L190.622 320.58ZM331.622 288.96C331.562 288.86 331.512 288.75 331.472 288.63C331.232 288 331.202 287.31 331.322 286.71L252.242 260.73L266.822 328.86C267.932 328.71 269.042 329.19 269.732 330.03L331.622 288.96ZM245.192 219.93C244.862 220.35 244.412 220.68 243.872 220.89C243.812 220.91 243.752 220.93 243.692 220.95L252.062 260.04L331.502 286.14C331.562 286 331.642 285.86 331.742 285.72L245.192 219.93ZM210.602 244.14C210.702 244.32 210.792 244.51 210.872 244.71C211.112 245.31 211.142 245.94 211.022 246.54L251.402 259.83L243.092 221.1C242.012 221.22 240.932 220.83 240.242 220.02L210.602 244.14ZM134.732 187.38C134.402 187.71 134.012 187.95 133.562 188.13C133.282 188.25 132.992 188.32 132.692 188.34V255.72L204.602 246.03C204.572 245.28 204.782 244.59 205.202 243.99L134.732 187.38ZM52.3517 115.92L68.4617 75.1797L42.4817 119.52L48.2117 119.01C48.2117 117.72 48.9917 116.49 50.2517 116.01C50.9717 115.74 51.6917 115.71 52.3517 115.92ZM7.86172 38.9097C7.50171 39.4497 6.99173 39.8997 6.33173 40.1397C5.97171 40.2897 5.61172 40.3497 5.22174 40.3497L3.2417 70.9797L66.9317 71.3397C66.9717 71.0197 67.0517 70.7097 67.1717 70.4097L7.86172 38.9097ZM-34.9783 18.1797C-35.3083 18.7797 -35.8783 19.2597 -36.5683 19.5297C-37.0183 19.7097 -37.4683 19.7697 -37.9183 19.7697L-43.3183 67.8297C-42.5983 67.9797 -41.9683 68.3697 -41.4883 68.9097L2.31171 38.6997C2.23172 38.5797 2.17172 38.4497 2.13171 38.3097C1.80173 37.5297 1.83173 36.7197 2.10175 35.9997L-34.9783 18.1797ZM-85.9783 -45.5703C-86.1583 -45.4503 -86.3583 -45.3503 -86.5783 -45.2703C-87.1783 -45.0303 -87.7783 -45.0003 -88.3483 -45.0903L-101.938 0.869751L-40.7683 15.2997C-40.5883 14.8497 -40.3183 14.4297 -39.9283 14.0997L-85.9783 -45.5703ZM-77.1283 -102.24C-77.4483 -102.34 -77.7483 -102.49 -78.0283 -102.69L-107.608 -61.7403L-90.2683 -50.3703C-89.9383 -50.7903 -89.4883 -51.1203 -88.9783 -51.3303C-88.4383 -51.5103 -87.8983 -51.5703 -87.3582 -51.5103L-77.1283 -102.24ZM-160.948 -151.02C-160.888 -150.54 -160.918 -150.06 -161.068 -149.61L-133.438 -135.48L-114.958 -159.54C-115.258 -159.84 -115.498 -160.2 -115.678 -160.62C-115.738 -160.78 -115.788 -160.95 -115.828 -161.13L-160.948 -151.02Z" fill="#00A8E8"/>
<g style="mix-blend-mode:screen">
<path d="M305.463 222.78C303.423 226.53 298.713 227.94 294.933 225.9C291.153 223.86 289.773 219.12 291.813 215.37C293.853 211.59 298.563 210.21 302.343 212.25C306.093 214.29 307.503 219 305.463 222.78Z" fill="url(#paint0_radial_83479_3014)"/>
</g>
<g style="mix-blend-mode:screen">
<path d="M21.4216 286.17C19.3816 289.95 14.6716 291.33 10.8916 289.29C7.1416 287.25 5.73161 282.54 7.77161 278.76C9.81161 275.01 14.5216 273.6 18.3016 275.64C22.0816 277.68 23.4616 282.39 21.4216 286.17Z" fill="url(#paint1_radial_83479_3014)"/>
</g>
<g style="mix-blend-mode:screen">
<path d="M21.8729 20.2793C19.8329 24.0293 15.1229 25.4393 11.3429 23.3993C7.56294 21.3593 6.18295 16.6493 8.22295 12.8693C10.2629 9.08932 14.9729 7.70931 18.7529 9.74931C22.5029 11.7893 23.9129 16.4993 21.8729 20.2793Z" fill="url(#paint2_radial_83479_3014)"/>
</g>
<g style="mix-blend-mode:screen">
<path d="M288.603 282.75C287.583 284.64 285.213 285.33 283.353 284.31C281.463 283.29 280.743 280.95 281.793 279.06C282.813 277.17 285.153 276.48 287.043 277.5C288.933 278.52 289.623 280.86 288.603 282.75Z" fill="url(#paint3_radial_83479_3014)"/>
</g>
<g style="mix-blend-mode:screen">
<path d="M26.2206 193.65C25.2006 195.51 22.8306 196.23 20.9706 195.21C19.0806 194.19 18.3906 191.82 19.4106 189.93C20.4306 188.04 22.7706 187.35 24.6606 188.37C26.5506 189.39 27.2406 191.76 26.2206 193.65Z" fill="url(#paint4_radial_83479_3014)"/>
</g>
<g style="mix-blend-mode:screen">
<path d="M86.6406 57.06C85.6206 58.95 83.2506 59.64 81.3606 58.62C79.4706 57.6 78.7806 55.23 79.8006 53.37C80.8206 51.48 83.1906 50.76 85.0806 51.81C86.9406 52.83 87.6606 55.17 86.6406 57.06Z" fill="url(#paint5_radial_83479_3014)"/>
</g>
<g style="mix-blend-mode:screen">
<path d="M182.701 290.609C181.681 292.499 179.341 293.189 177.451 292.169C175.561 291.149 174.871 288.779 175.891 286.889C176.911 285.029 179.251 284.309 181.141 285.329C183.031 286.349 183.721 288.719 182.701 290.609Z" fill="url(#paint6_radial_83479_3014)"/>
</g>
<g style="mix-blend-mode:screen">
<path d="M104.131 161.009C103.111 162.899 100.771 163.589 98.8807 162.569C96.9907 161.549 96.3007 159.179 97.3207 157.289C98.3407 155.429 100.681 154.709 102.571 155.729C104.461 156.749 105.151 159.119 104.131 161.009Z" fill="url(#paint7_radial_83479_3014)"/>
</g>
<g style="mix-blend-mode:screen">
<path d="M124.264 13.9496C123.244 15.8396 120.904 16.5296 119.014 15.5096C117.124 14.4896 116.434 12.1196 117.454 10.2296C118.474 8.36962 120.814 7.64964 122.704 8.66964C124.594 9.68964 125.284 12.0596 124.264 13.9496Z" fill="url(#paint8_radial_83479_3014)"/>
</g>
<g style="mix-blend-mode:screen">
<path d="M121.771 272.88C120.751 274.77 118.411 275.46 116.521 274.44C114.631 273.42 113.941 271.08 114.961 269.19C115.981 267.3 118.351 266.61 120.211 267.63C122.101 268.65 122.791 270.99 121.771 272.88Z" fill="url(#paint9_radial_83479_3014)"/>
</g>
</g>
</g>
<defs>
<radialGradient id="paint0_radial_83479_3014" cx="0" cy="0" r="1" gradientUnits="userSpaceOnUse" gradientTransform="translate(298.636 219.066) rotate(28.4613) scale(7.7643)">
<stop stop-color="white"/>
<stop offset="1"/>
</radialGradient>
<radialGradient id="paint1_radial_83479_3014" cx="0" cy="0" r="1" gradientUnits="userSpaceOnUse" gradientTransform="translate(14.605 282.471) rotate(28.4613) scale(7.7643)">
<stop stop-color="white"/>
<stop offset="1"/>
</radialGradient>
<radialGradient id="paint2_radial_83479_3014" cx="0" cy="0" r="1" gradientUnits="userSpaceOnUse" gradientTransform="translate(15.0473 16.5719) rotate(28.4613) scale(7.7643)">
<stop stop-color="white"/>
<stop offset="1"/>
</radialGradient>
<radialGradient id="paint3_radial_83479_3014" cx="0" cy="0" r="1" gradientUnits="userSpaceOnUse" gradientTransform="translate(285.193 280.91) rotate(28.4624) scale(3.88202)">
<stop stop-color="white"/>
<stop offset="1"/>
</radialGradient>
<radialGradient id="paint4_radial_83479_3014" cx="0" cy="0" r="1" gradientUnits="userSpaceOnUse" gradientTransform="translate(22.8108 191.786) rotate(28.4624) scale(3.88202)">
<stop stop-color="white"/>
<stop offset="1"/>
</radialGradient>
<radialGradient id="paint5_radial_83479_3014" cx="0" cy="0" r="1" gradientUnits="userSpaceOnUse" gradientTransform="translate(83.2182 55.2081) rotate(28.4624) scale(3.88202 3.88202)">
<stop stop-color="white"/>
<stop offset="1"/>
</radialGradient>
<radialGradient id="paint6_radial_83479_3014" cx="0" cy="0" r="1" gradientUnits="userSpaceOnUse" gradientTransform="translate(179.299 288.749) rotate(28.4624) scale(3.88202)">
<stop stop-color="white"/>
<stop offset="1"/>
</radialGradient>
<radialGradient id="paint7_radial_83479_3014" cx="0" cy="0" r="1" gradientUnits="userSpaceOnUse" gradientTransform="translate(100.723 159.154) rotate(28.4624) scale(3.88202 3.88202)">
<stop stop-color="#5D59A8"/>
<stop offset="1" stop-color="#F2F2F8"/>
</radialGradient>
<radialGradient id="paint8_radial_83479_3014" cx="0" cy="0" r="1" gradientUnits="userSpaceOnUse" gradientTransform="translate(120.86 12.0905) rotate(28.4624) scale(3.88202)">
<stop stop-color="white"/>
<stop offset="1"/>
</radialGradient>
<radialGradient id="paint9_radial_83479_3014" cx="0" cy="0" r="1" gradientUnits="userSpaceOnUse" gradientTransform="translate(118.371 271.038) rotate(28.4624) scale(3.88202)">
<stop stop-color="white"/>
<stop offset="1"/>
</radialGradient>
</defs>
</svg>
