<svg width="300" height="300" viewBox="0 0 300 300" fill="none" xmlns="http://www.w3.org/2000/svg">
<g opacity="0.2">
<mask id="mask0_83479_2981" style="mask-type:luminance" maskUnits="userSpaceOnUse" x="0" y="0" width="300" height="300">
<path d="M300 300H0V0H300V300Z" fill="white"/>
</mask>
<g mask="url(#mask0_83479_2981)">
<g opacity="0.3">
<path fill-rule="evenodd" clip-rule="evenodd" d="M584.73 146.04C583.23 148.11 580.35 148.56 578.28 147.06C577.47 146.49 576.9 145.68 576.63 144.81L512.82 161.82C512.72 161.98 512.62 162.13 512.52 162.27C512.13 162.84 511.62 163.26 511.05 163.59L559.95 264.66C561.39 264.06 563.07 264.21 564.42 265.2C566.49 266.7 566.94 269.58 565.44 271.65C563.94 273.72 561.03 274.17 558.99 272.67C558.12 272.04 557.55 271.2 557.28 270.24L481.38 287.55C481.56 288.72 481.32 289.98 480.54 291C479.55 292.38 477.93 293.04 476.34 292.89L467.22 347.55C467.82 347.7 468.36 347.94 468.9 348.33C470.97 349.83 471.42 352.74 469.92 354.78C468.42 356.85 465.51 357.33 463.44 355.8C462.15 354.87 461.49 353.4 461.55 351.9L400.41 345.75C400.29 346.44 400.02 347.1 399.57 347.7C398.22 349.59 395.67 350.13 393.66 349.08L362.88 403.92C362.9 403.94 362.92 403.95 362.94 403.95C365.01 405.45 365.46 408.36 363.96 410.43C362.46 412.5 359.55 412.95 357.48 411.45C357.1 411.15 356.77 410.81 356.49 410.43L316.05 434.7C316.83 436.23 316.77 438.09 315.69 439.56C314.19 441.63 311.31 442.08 309.24 440.58C307.17 439.08 306.72 436.23 308.16 434.16L260.85 395.91C259.26 397.5 256.71 397.74 254.85 396.39C252.78 394.89 252.33 391.98 253.83 389.94C254.22 389.37 254.73 388.95 255.27 388.62L202.59 271.17C201.18 271.71 199.56 271.53 198.24 270.6C196.17 269.07 195.72 266.19 197.22 264.12C198.72 262.05 201.63 261.6 203.7 263.1C204.54 263.73 205.11 264.6 205.41 265.53L315.57 240.84C315.55 240.62 315.54 240.39 315.54 240.15L266.43 235.89C266.31 236.52 266.04 237.15 265.65 237.72C264.15 239.79 261.24 240.24 259.17 238.74C257.1 237.24 256.65 234.33 258.15 232.26L257.97 232.5L142.29 134.79C140.73 136.41 138.15 136.68 136.26 135.33C135.24 134.58 134.64 133.56 134.43 132.42L71.6101 140.07C71.6701 141.09 71.3701 142.17 70.7101 143.07C69.2101 145.11 66.3301 145.59 64.2601 144.09C62.1901 142.56 61.7401 139.68 63.2401 137.61C63.8401 136.77 64.7101 136.2 65.6101 135.93L43.5301 42.9001C42.3301 43.1101 41.0701 42.8401 40.0201 42.0901C37.9501 40.5901 37.5001 37.6801 39.0001 35.6101C39.6601 34.7101 40.5901 34.1401 41.5801 33.8701L30.3601 -23.5799C29.2201 -23.4299 28.0501 -23.6999 27.0301 -24.4199C24.9601 -25.9199 24.5101 -28.7999 26.0101 -30.8699C27.5401 -32.9399 30.4201 -33.3899 32.4901 -31.8899C33.7801 -30.9599 34.4401 -29.4599 34.3801 -27.9599L102.54 -18.1199C102.69 -18.7199 102.93 -19.3499 103.35 -19.8899C104.85 -21.9599 107.73 -22.4099 109.8 -20.9099C110 -20.7499 110.19 -20.5799 110.37 -20.3999L169.44 -71.4899C168.24 -73.0799 168.15 -75.3299 169.38 -77.0099C170.88 -79.0799 173.79 -79.5299 175.86 -78.0299C177.93 -76.5299 178.38 -73.6199 176.88 -71.5799C176.34 -70.8599 175.68 -70.3499 174.93 -70.0199L202.38 9.4501C203.7 9.0601 205.2 9.2401 206.4 10.1401C207.93 11.2501 208.56 13.0801 208.2 14.8201L298.62 38.0701C298.76 37.6101 298.98 37.1801 299.28 36.7801C300.78 34.7101 303.69 34.2601 305.73 35.7601C307.8 37.2601 308.28 40.1701 306.75 42.2401C306.59 42.4601 306.42 42.6601 306.24 42.8401L350.49 95.3101C352.05 94.1401 354.27 94.0801 355.95 95.2801C356.82 95.9101 357.39 96.7801 357.66 97.7401L442.59 78.7201L442.08 78.0901L443.19 78.6001L443.55 78.5101L443.49 78.7501L576.96 141.09C577.04 140.93 577.14 140.77 577.26 140.61C578.76 138.54 581.67 138.09 583.71 139.59C585.78 141.09 586.26 143.97 584.73 146.04ZM432.51 129.57L504.57 157.62C504.71 157.34 504.86 157.08 505.02 156.84C505.2 156.6 505.4 156.38 505.62 156.18L443.31 79.5901L432.51 129.57ZM478.95 278.43L507.36 163.98C507.02 163.86 506.69 163.71 506.37 163.53L506.16 163.59L421.95 282.24C422.82 282.96 423.39 283.95 423.57 285L478.95 278.43ZM422.79 288.57C422.55 288.89 422.28 289.17 421.98 289.41L439.47 314.01L472.86 290.7C472.44 289.98 472.23 289.2 472.2 288.39L423.66 286.32C423.57 287.1 423.3 287.88 422.79 288.57ZM505.8 163.08C505.14 162.54 504.69 161.85 504.42 161.1L428.67 183.81L419.76 281.25C420.36 281.37 420.93 281.58 421.47 281.91L505.8 163.08ZM414.75 284.16L355.71 256.86L343.5 299.22C343.9 299.36 344.28 299.56 344.64 299.82C345.51 300.45 346.08 301.32 346.35 302.25L414.51 286.56C414.36 285.75 414.45 284.94 414.75 284.16ZM504.39 158.16L432.42 130.14L427.62 152.34C429.21 150.69 431.79 150.42 433.68 151.8C434.91 152.7 435.54 154.08 435.57 155.46L504.21 158.94C504.25 158.68 504.31 158.42 504.39 158.16ZM504.18 159.54H503.91L435.54 156.06C435.45 156.84 435.18 157.59 434.7 158.25C433.77 159.54 432.3 160.2 430.83 160.17L428.73 183.15L504.27 160.5C504.21 160.18 504.18 159.86 504.18 159.54ZM427.47 158.58L375.51 198.03C375.71 198.33 375.87 198.64 375.99 198.96L428.1 183.33L430.23 160.11C429.54 159.99 428.85 159.72 428.22 159.27C427.94 159.07 427.69 158.84 427.47 158.58ZM427.08 158.1C426.82 157.7 426.63 157.27 426.51 156.81L366.21 169.89L370.86 196.02C372.06 195.81 373.32 196.05 374.37 196.83C374.67 197.03 374.93 197.27 375.15 197.55L427.08 158.1ZM365.61 170.01L294.42 185.43C294.48 185.83 294.49 186.23 294.45 186.63L367.14 199.47C367.26 198.9 367.53 198.33 367.89 197.85C368.49 197.01 369.33 196.44 370.26 196.14L365.61 170.01ZM324.48 241.77L355.32 256.05L370.08 204.93C369.68 204.79 369.29 204.59 368.91 204.33C368.79 204.23 368.67 204.12 368.55 204L323.91 237.36C324.84 238.65 325.05 240.3 324.48 241.77ZM294.36 187.23C294.24 187.8 293.97 188.34 293.61 188.85C293.28 189.33 292.83 189.72 292.35 190.02L308.91 220.11L367.17 201.69C367.05 201.23 367 200.77 367.02 200.31L294.36 187.23ZM309.21 220.62L317.76 236.16C319.32 235.2 321.33 235.23 322.89 236.37C323.11 236.53 323.32 236.71 323.52 236.91L368.13 203.55C367.8 203.16 367.53 202.71 367.35 202.23L309.21 220.62ZM321.93 244.35L340.71 299.1C341.4 298.92 342.18 298.89 342.9 299.04L355.14 256.59L324.21 242.31C324.11 242.49 324 242.66 323.88 242.82C323.37 243.54 322.68 244.05 321.93 244.35ZM414.99 283.59C415.07 283.41 415.17 283.24 415.29 283.08C415.65 282.6 416.07 282.21 416.55 281.91L373.62 204.75C372.69 205.17 371.64 205.29 370.65 205.08L355.86 256.26L414.99 283.59ZM417.09 281.64C417.72 281.31 418.47 281.16 419.19 281.19L428.04 183.96L376.14 199.53C376.44 200.79 376.2 202.17 375.39 203.28C375.03 203.76 374.61 204.15 374.16 204.45L417.09 281.64ZM357.66 100.41L431.97 129.33L442.77 79.2901L357.81 98.3101C357.93 99.0001 357.87 99.7201 357.66 100.41ZM357.15 101.49L427.02 152.31L431.85 129.93L357.45 100.98C357.35 101.16 357.25 101.33 357.15 101.49ZM354.36 103.5L366.09 169.29L426.39 156.24C426.21 155.16 426.42 154.05 427.05 153.06L356.79 101.97C356.16 102.75 355.29 103.29 354.36 103.5ZM292.83 182.58C293.58 183.18 294.09 183.99 294.33 184.86L365.52 169.41L353.76 103.62C352.74 103.74 351.69 103.5 350.79 102.93L292.83 182.58ZM350.28 102.57C349.26 101.73 348.69 100.56 348.6 99.3301L297.96 99.2701L290.58 181.56C291.18 181.65 291.78 181.86 292.32 182.22L350.28 102.57ZM297.39 99.2701L217.47 99.1801C217.47 100.14 217.2 101.1 216.6 101.94C216.54 102.02 216.47 102.1 216.39 102.18L287.07 182.46C287.91 181.8 288.96 181.47 290.01 181.5L297.39 99.2701ZM302.94 44.1301L298.02 98.6701L348.63 98.7301C348.69 97.8901 348.96 97.0501 349.5 96.3001C349.66 96.0801 349.84 95.8801 350.04 95.7001L305.79 43.2301C304.95 43.8301 303.93 44.1301 302.94 44.1301ZM242.04 80.1301L216.81 96.8101C217.14 97.3501 217.35 97.9801 217.44 98.6101L297.42 98.6701L302.34 44.0701C301.62 43.9501 300.93 43.6801 300.33 43.2301C299.95 42.9501 299.62 42.6401 299.34 42.3001L242.04 80.1301ZM298.53 40.4701L208.41 53.9701L212.91 94.5901C213.84 94.5901 214.77 94.8601 215.58 95.4601C215.92 95.7001 216.21 95.9801 216.45 96.3001L294.45 44.8201L299.04 41.7901C298.8 41.3701 298.63 40.9301 298.53 40.4701ZM209.13 96.4801C209.15 96.4401 209.18 96.3901 209.22 96.3301L167.4 64.7701C166.2 66.0901 164.37 66.5701 162.72 66.0901L144.06 118.29L208.35 100.17C208.08 98.9101 208.32 97.5901 209.13 96.4801ZM199.2 12.8101L167.28 2.5201L162.9 57.1501C163.56 57.0001 164.25 57.0001 164.94 57.1201L179.7 40.5001L200.43 17.1001C199.29 15.9601 198.84 14.3401 199.2 12.8101ZM209.64 95.9101C210.36 95.1601 211.32 94.7401 212.31 94.6201L207.81 54.0601L168.27 59.9701C168.84 61.3501 168.69 62.9701 167.79 64.2901L209.64 95.9101ZM204.45 18.4501L208.32 53.3701L298.44 39.9001C298.4 39.4801 298.42 39.0601 298.5 38.6401L208.08 15.3901C207.92 15.8101 207.71 16.2101 207.45 16.5901C206.7 17.6101 205.62 18.2401 204.45 18.4501ZM200.97 17.6101C200.95 17.5901 200.92 17.5601 200.88 17.5201L184.17 36.3901L165.57 57.3301C165.97 57.4701 166.35 57.6701 166.71 57.9301C167.25 58.3501 167.7 58.8601 168 59.4001L207.75 53.4601L203.85 18.4801C202.86 18.5401 201.84 18.2401 200.97 17.6101ZM173.07 -69.6599L167.34 1.9201L199.38 12.2701C199.52 11.8701 199.71 11.5001 199.95 11.1601C200.46 10.4701 201.12 9.9601 201.84 9.6301L174.39 -69.8399C173.95 -69.7199 173.51 -69.6599 173.07 -69.6599ZM110.79 -19.9499C111.63 -18.8399 111.93 -17.3699 111.6 -16.0199L166.74 1.7401L172.47 -69.7199C171.75 -69.8099 171.06 -70.0799 170.43 -70.5599C170.23 -70.6999 170.04 -70.8599 169.86 -71.0399L110.79 -19.9499ZM110.01 -13.5599L141.39 30.6001L160.98 58.1701C161.36 57.8301 161.79 57.5701 162.27 57.3901L166.68 2.37009L111.39 -15.4499C111.25 -15.1099 111.07 -14.7699 110.85 -14.4299C110.61 -14.1099 110.33 -13.8199 110.01 -13.5599ZM106.26 -12.6299L90.9901 47.3101L159.51 60.5101C159.63 59.9701 159.87 59.4301 160.23 58.9501C160.33 58.8301 160.43 58.7101 160.53 58.5901L109.53 -13.2299C108.54 -12.6299 107.37 -12.4199 106.26 -12.6299ZM103.8 -13.9199L46.4701 35.5501C47.1901 36.5101 47.5201 37.7401 47.3701 38.9101L90.3901 47.1901L105.66 -12.7499C105.21 -12.8999 104.79 -13.1099 104.37 -13.4099C104.17 -13.5699 103.98 -13.7399 103.8 -13.9199ZM45.5101 34.5901C45.7101 34.7501 45.9001 34.9201 46.0801 35.1001L103.41 -14.3699C102.72 -15.2699 102.42 -16.4099 102.48 -17.5199L34.3501 -27.3599C34.2301 -26.6699 33.9601 -26.0099 33.5401 -25.4399C32.8801 -24.5399 31.9501 -23.9399 30.9601 -23.6999L42.1801 33.7501C43.3201 33.6001 44.4901 33.8701 45.5101 34.5901ZM67.8601 135.78L90.2401 47.7901L47.2501 39.5101C47.1001 40.0501 46.8601 40.5901 46.5301 41.0701C45.9001 41.9101 45.0601 42.4801 44.1301 42.7501L66.2401 135.78C66.7501 135.69 67.3201 135.69 67.8601 135.78ZM160.2 64.3501C159.54 63.3901 159.24 62.2201 159.39 61.1101L90.8401 47.9101L68.4301 135.93C68.8801 136.08 69.3301 136.29 69.7201 136.59C69.9801 136.77 70.2101 136.97 70.4101 137.19L160.2 64.3501ZM71.3401 138.81L143.34 118.5L162.12 65.9101C161.82 65.7901 161.53 65.6301 161.25 65.4301C160.99 65.2501 160.76 65.0501 160.56 64.8301L70.7701 137.67C71.0101 138.03 71.2001 138.41 71.3401 138.81ZM140.25 127.14L143.07 119.19L71.5201 139.38C71.5201 139.42 71.5201 139.45 71.5201 139.47L134.37 131.85C134.31 130.8 134.58 129.75 135.24 128.85C136.41 127.23 138.42 126.6 140.25 127.14ZM143.07 129.45L208.5 100.8C208.48 100.78 208.47 100.77 208.47 100.77L143.79 119.01L140.82 127.32C141.12 127.46 141.41 127.63 141.69 127.83C142.29 128.28 142.77 128.82 143.07 129.45ZM260.25 230.67L214.44 103.56C213.03 104.07 211.41 103.92 210.12 102.96C209.52 102.54 209.04 101.97 208.74 101.34L143.34 129.99C143.82 131.4 143.67 133.02 142.71 134.31C142.71 134.31 142.71 134.32 142.71 134.34L258.36 232.02C258.87 231.39 259.53 230.94 260.25 230.67ZM264.24 231L287.34 190.02C287.28 189.98 287.21 189.94 287.13 189.9C285.09 188.4 284.61 185.49 286.11 183.42C286.27 183.22 286.43 183.04 286.59 182.88L227.19 115.38L215.97 102.63C215.67 102.91 215.34 103.14 214.98 103.32L260.85 230.49C261.96 230.22 263.19 230.37 264.24 231ZM308.34 220.32L291.84 190.35C290.58 190.92 289.14 190.92 287.85 190.32L264.75 231.36C265.53 231.96 266.04 232.74 266.31 233.61L308.34 220.32ZM316.44 237.42C316.68 237.08 316.96 236.79 317.28 236.55L308.64 220.86L266.49 234.21C266.55 234.57 266.57 234.93 266.55 235.29L315.6 239.55C315.69 238.8 315.96 238.08 316.44 237.42ZM259.08 388.26L318.15 244.29C317.91 244.17 317.68 244.03 317.46 243.87C316.59 243.27 316.02 242.4 315.75 241.44L205.56 266.13C205.74 267.3 205.47 268.53 204.72 269.58C204.3 270.18 203.76 270.63 203.16 270.93L255.84 388.38C256.86 387.96 258 387.93 259.08 388.26ZM338.55 306.75C337.08 305.16 336.87 302.7 338.19 300.87C338.7 300.18 339.39 299.67 340.17 299.34L321.39 244.59C320.52 244.83 319.59 244.83 318.69 244.53L259.62 388.5C259.86 388.62 260.09 388.76 260.31 388.92C260.41 389 260.51 389.08 260.61 389.16L338.55 306.75ZM359.31 403.17L342.45 308.19C341.34 308.31 340.2 308.04 339.21 307.35C339.13 307.29 339.06 307.22 339 307.14L261.03 389.55C262.47 391.14 262.65 393.57 261.33 395.37C261.31 395.41 261.29 395.44 261.27 395.46L308.58 433.68C310.14 432 312.78 431.7 314.7 433.08C315.12 433.41 315.48 433.77 315.78 434.19L356.19 409.92C355.35 408.42 355.41 406.47 356.49 404.97C357.21 404.01 358.2 403.41 359.31 403.17ZM416.79 289.86C416.65 289.78 416.5 289.69 416.34 289.59C415.5 288.96 414.93 288.09 414.63 287.16L346.5 302.85C346.68 304.02 346.44 305.28 345.69 306.33C345 307.23 344.07 307.83 343.05 308.1L359.88 403.08C360.66 403.02 361.41 403.17 362.13 403.47L416.79 289.86ZM393.18 348.75C393.16 348.75 393.15 348.74 393.15 348.72C391.68 347.67 391.02 345.9 391.29 344.22L364.8 399.3L393.18 348.75ZM397.08 340.53L415.71 293.55L392.43 341.88C393.63 340.56 395.43 340.08 397.08 340.53ZM438.99 314.34L421.5 289.77C420.36 290.49 418.95 290.64 417.66 290.25L397.65 340.71C397.99 340.85 398.3 341.03 398.58 341.25C398.88 341.47 399.15 341.72 399.39 342L438.99 314.34ZM463.29 348.48L439.35 314.82L399.75 342.45C400.26 343.26 400.53 344.19 400.5 345.12L461.64 351.3C461.76 350.61 462.03 349.92 462.45 349.32C462.69 349 462.97 348.72 463.29 348.48ZM475.77 292.77C475.2 292.65 474.63 292.38 474.12 292.02C473.78 291.76 473.48 291.47 473.22 291.15L439.83 314.49L463.77 348.12C464.64 347.58 465.66 347.34 466.65 347.46L467.73 341.1L475.77 292.77ZM477.63 283.71L478.8 279.03L423.66 285.54C423.66 285.6 423.66 285.65 423.66 285.69L472.23 287.76C472.32 286.98 472.59 286.2 473.07 285.54C474.15 284.04 475.95 283.41 477.63 283.71ZM556.14 269.85L479.43 278.94L478.23 283.83C478.68 283.98 479.13 284.22 479.55 284.52C480.39 285.12 480.96 285.99 481.26 286.92L556.14 269.85ZM510.51 163.83C509.7 164.13 508.83 164.25 507.96 164.07L479.58 278.34L557.07 269.16C557.01 268.11 557.31 267.06 557.94 266.19C558.36 265.62 558.87 265.2 559.41 264.87L510.51 163.83ZM576.69 141.63L444.21 79.7401L506.1 155.79C507.66 154.65 509.85 154.62 511.5 155.82C513.21 157.05 513.81 159.21 513.15 161.1L576.48 144.21C576.3 143.37 576.36 142.47 576.69 141.63Z" fill="#00A8E8"/>
</g>
<path fill-rule="evenodd" clip-rule="evenodd" d="M499.918 417.81C498.778 418.26 497.548 418.02 496.678 417.33L466.528 448.17C466.798 448.47 467.038 448.83 467.188 449.22C467.848 450.9 467.038 452.76 465.358 453.42C463.678 454.08 461.788 453.27 461.128 451.59C461.128 451.55 461.118 451.51 461.098 451.47L415.888 461.61C415.918 462.93 415.108 464.19 413.818 464.7C412.138 465.33 410.278 464.52 409.618 462.84C409.108 461.58 409.468 460.17 410.398 459.3L398.968 441.63L377.368 408.21C377.348 408.23 377.338 408.24 377.338 408.24C375.658 408.9 373.768 408.06 373.108 406.41C372.478 404.73 373.288 402.84 374.968 402.18C375.478 401.97 376.018 401.91 376.558 401.97L386.788 351.27C385.888 350.97 385.108 350.31 384.748 349.35C384.268 348.09 384.598 346.71 385.498 345.84L339.448 286.14C339.288 286.24 339.128 286.33 338.968 286.41C337.288 287.04 335.398 286.23 334.738 284.55C334.438 283.77 334.468 282.96 334.738 282.24L297.658 264.42C297.298 265.02 296.758 265.5 296.068 265.77C294.388 266.43 292.498 265.62 291.838 263.94C291.538 263.13 291.568 262.26 291.868 261.51L232.558 230.01C232.228 230.55 231.688 231 231.028 231.24C229.378 231.9 227.488 231.09 226.828 229.41C226.168 227.73 227.008 225.84 228.658 225.18C229.378 224.91 230.098 224.91 230.758 225.09L247.108 183.75C246.418 183.39 245.848 182.82 245.548 182.04C244.948 180.54 245.548 178.86 246.898 178.05L200.998 82.1402L201.268 82.0203C200.158 82.4403 198.988 82.2303 198.118 81.5703L170.008 112.56C170.278 112.83 170.488 113.16 170.638 113.55C171.298 115.23 170.488 117.12 168.808 117.78C167.128 118.44 165.268 117.6 164.608 115.92C164.188 114.9 164.338 113.82 164.908 112.95L94.4083 56.3103C94.1083 56.6103 93.7483 56.8503 93.3583 57.0002C92.0683 57.5103 90.6583 57.1503 89.7883 56.1903L60.1183 80.3403C60.2183 80.5002 60.2983 80.6603 60.3583 80.8203C61.0183 82.5003 60.2083 84.3603 58.5283 85.0203C56.8483 85.6803 54.9583 84.8703 54.2983 83.1902C53.9383 82.2603 54.0283 81.2703 54.4783 80.4303L-32.0717 14.6403C-32.4017 15.0003 -32.7917 15.2702 -33.2717 15.4803C-34.9517 16.1403 -36.8417 15.3003 -37.5017 13.6203C-38.1317 11.9703 -37.3217 10.0803 -35.6417 9.42026C-34.2917 8.88026 -32.7917 9.33025 -31.9217 10.4102L29.9683 -30.6597C29.9083 -30.7797 29.8483 -30.8997 29.7883 -31.0198C29.1583 -32.6998 29.9683 -34.5598 31.6483 -35.2197C33.2983 -35.8798 35.1883 -35.0697 35.8483 -33.3897C36.2983 -32.2197 36.0283 -30.9297 35.2483 -30.0597L69.7783 6.63025C70.0183 6.45026 70.2883 6.30025 70.5883 6.18025C71.7283 5.73026 72.9883 5.97026 73.8583 6.72026L97.5283 -16.4697C97.3483 -16.7097 97.1983 -16.9697 97.0783 -17.2497C96.4483 -18.9297 97.2583 -20.8197 98.9383 -21.4797C100.588 -22.1097 102.448 -21.2997 103.138 -19.6797L145.888 -30.8698C145.558 -32.3997 146.368 -33.9897 147.868 -34.5597C148.318 -34.7397 148.798 -34.7998 149.248 -34.7698L155.908 -77.4298C154.918 -77.6997 154.078 -78.3898 153.688 -79.4098C153.028 -81.0598 153.838 -82.9498 155.518 -83.6098C157.198 -84.2698 159.058 -83.4598 159.718 -81.7798C159.868 -81.3898 159.958 -80.9998 159.958 -80.6098L198.748 -77.0998C198.928 -78.1797 199.648 -79.1098 200.728 -79.5598C201.538 -79.8598 202.408 -79.8298 203.158 -79.5298L228.388 -128.04C227.818 -128.4 227.368 -128.94 227.098 -129.6C226.438 -131.25 227.278 -133.14 228.958 -133.8C230.608 -134.46 232.498 -133.65 233.158 -131.97C233.578 -130.92 233.398 -129.78 232.798 -128.91L292.798 -77.7598C293.098 -78.0598 293.488 -78.2997 293.878 -78.4497C293.978 -78.4897 294.068 -78.5197 294.148 -78.5397L317.068 -118.98C316.558 -119.34 316.138 -119.82 315.898 -120.45C315.238 -122.13 316.048 -124.02 317.728 -124.65C319.408 -125.31 321.268 -124.5 321.928 -122.82C322.588 -121.14 321.778 -119.28 320.098 -118.62C319.998 -118.58 319.898 -118.54 319.798 -118.5L338.518 -16.8297H338.728L338.578 -16.4997L338.788 -15.2997L338.308 -15.9597L310.408 38.2803C310.948 38.6403 311.398 39.1503 311.668 39.8103C312.178 41.1302 311.788 42.6003 310.768 43.4703L338.578 82.8603C338.718 82.7803 338.868 82.7103 339.028 82.6503C340.678 81.9902 342.568 82.8003 343.228 84.4803C343.858 86.0403 343.168 87.8103 341.698 88.5603L446.818 166.98C447.148 166.62 447.568 166.32 448.048 166.14C449.728 165.48 451.618 166.29 452.278 167.97C452.908 169.65 452.098 171.54 450.418 172.2C449.758 172.44 449.038 172.47 448.378 172.29L410.248 273.87C410.968 274.2 411.538 274.8 411.868 275.61C412.138 276.33 412.138 277.11 411.928 277.8L454.078 295.98C454.408 295.35 455.008 294.81 455.728 294.54C457.408 293.88 459.298 294.69 459.958 296.37C460.408 297.57 460.108 298.89 459.298 299.76L486.988 331.08C487.208 330.9 487.458 330.76 487.738 330.66C489.388 330 491.278 330.84 491.938 332.49C492.598 334.17 491.758 336.06 490.108 336.72C489.928 336.78 489.758 336.83 489.598 336.87L498.628 411.54C499.948 411.51 501.238 412.29 501.748 413.61C502.408 415.29 501.568 417.18 499.918 417.81ZM432.898 435.09L378.598 407.34C378.398 407.56 378.168 407.76 377.908 407.94L397.918 438.9L410.878 458.94C411.058 458.82 411.248 458.72 411.448 458.64C412.498 458.22 413.638 458.4 414.508 459L432.898 435.09ZM297.358 260.7L341.158 230.49C341.078 230.35 341.008 230.21 340.948 230.07C340.848 229.77 340.778 229.47 340.738 229.17L297.358 228.93L295.378 259.56C296.158 259.68 296.848 260.07 297.358 260.7ZM296.818 228.33L299.968 179.46C299.248 179.34 298.558 178.98 298.048 178.41L232.618 226.56C232.718 226.7 232.798 226.86 232.858 227.04C232.978 227.34 233.048 227.64 233.068 227.94L296.818 228.33ZM205.168 -76.1398C205.048 -74.9697 204.298 -73.9197 203.128 -73.4697C202.618 -73.2597 202.078 -73.1997 201.568 -73.2597L194.458 -40.3797L208.438 -76.1097L205.168 -76.1398ZM229.258 -127.62L209.308 -76.6798L291.868 -75.7197C291.928 -76.2897 292.108 -76.7997 292.438 -77.2497L232.408 -128.4C232.108 -128.13 231.748 -127.89 231.328 -127.71C230.638 -127.44 229.918 -127.44 229.258 -127.62ZM378.718 162.12L393.358 191.13C394.858 190.53 396.568 191.16 397.348 192.54L446.188 170.28C446.068 169.9 446.008 169.53 446.008 169.17L378.718 162.12ZM473.698 403.05L465.178 398.91C464.848 399.51 464.278 399.99 463.588 400.26C463.328 400.36 463.068 400.43 462.808 400.47L464.008 447.18C464.088 447.18 464.158 447.18 464.218 447.18L473.698 403.05ZM461.848 392.67L457.648 316.17L448.558 310.98C448.198 311.49 447.718 311.88 447.088 312.12C446.988 312.16 446.888 312.2 446.788 312.24L449.398 326.07L461.848 392.67ZM444.238 311.88L408.418 361.47L459.838 395.22C460.198 394.8 460.648 394.44 461.188 394.23C461.288 394.19 461.388 394.15 461.488 394.11L455.248 360.72L446.188 312.33C445.498 312.39 444.808 312.24 444.238 311.88ZM473.818 402.45L487.918 336.84L463.918 394.38C464.578 394.74 465.118 395.31 465.418 396.06C465.718 396.84 465.688 397.65 465.418 398.37L473.818 402.45ZM485.938 332.4L458.248 316.53L462.508 394.02C462.808 394.02 463.098 394.07 463.378 394.17L487.378 336.6C486.718 336.24 486.178 335.67 485.878 334.92C485.548 334.08 485.578 333.15 485.938 332.4ZM486.538 331.5L458.818 300.21C458.598 300.39 458.358 300.53 458.098 300.63C457.858 300.71 457.618 300.77 457.378 300.81L458.218 315.81L486.238 331.86C486.318 331.74 486.418 331.62 486.538 331.5ZM448.348 306.99C448.588 307.25 448.778 307.56 448.918 307.92C449.248 308.79 449.188 309.69 448.858 310.47L457.588 315.48L456.778 300.84C456.088 300.81 455.428 300.57 454.888 300.15L448.348 306.99ZM443.248 307.23L411.058 279.18C410.758 279.48 410.428 279.69 410.008 279.87C409.408 280.08 408.778 280.14 408.208 280.02L402.688 298.62L442.828 308.07C442.928 307.77 443.068 307.49 443.248 307.23ZM405.568 276.84C405.568 276.24 405.748 275.67 406.048 275.16L363.478 243.72L339.868 280.95C340.258 281.31 340.588 281.73 340.798 282.24C340.898 282.5 340.958 282.76 340.978 283.02L405.568 276.84ZM201.328 76.0502L217.828 49.8002L208.738 41.1903C208.538 41.3303 208.318 41.4503 208.078 41.5502C207.568 41.7603 207.058 41.8203 206.548 41.7603L200.758 75.8703C200.958 75.9103 201.148 75.9702 201.328 76.0502ZM90.9583 51.0002C91.3183 50.8802 91.7083 50.7903 92.0683 50.7903L96.5683 10.3802L74.9683 9.66025C74.8483 10.6503 74.2483 11.5502 73.3483 12.0603L90.9583 51.0002ZM94.7983 52.1703L164.638 13.8003C164.618 13.7603 164.598 13.7202 164.578 13.6803C164.458 13.3602 164.388 13.0303 164.368 12.6903L97.1983 10.4102L92.6683 50.8203C93.5383 50.9703 94.2883 51.4503 94.7983 52.1703ZM391.288 193.89L341.818 185.16L344.098 225.69C345.028 225.72 345.898 226.14 346.498 226.86L391.678 195.75C391.618 195.63 391.558 195.5 391.498 195.36C391.318 194.88 391.258 194.37 391.288 193.89ZM341.188 185.04L303.058 178.32C302.878 178.54 302.668 178.74 302.428 178.92L342.148 226.26C342.348 226.12 342.568 226 342.808 225.9C343.028 225.82 343.258 225.76 343.498 225.72L341.188 185.04ZM341.158 184.41L339.838 161.01C338.788 160.95 337.828 160.41 337.258 159.51L334.318 161.01L303.718 176.55C303.688 176.97 303.568 177.36 303.388 177.75L341.158 184.41ZM336.868 156.93L313.858 148.11L302.818 174C303.118 174.3 303.358 174.66 303.508 175.08C303.608 175.34 303.678 175.6 303.718 175.86L334.048 160.44L336.988 158.94C336.718 158.28 336.718 157.56 336.868 156.93ZM391.648 192.6L342.508 159.84C342.178 160.26 341.728 160.56 341.188 160.77C340.948 160.87 340.698 160.94 340.438 160.98L341.758 184.53L391.378 193.29C391.438 193.05 391.528 192.82 391.648 192.6ZM339.208 88.8002L314.098 147.57L337.078 156.36C337.438 155.64 338.038 155.04 338.818 154.74C339.098 154.62 339.378 154.55 339.658 154.53L339.898 88.9203C339.658 88.9003 339.428 88.8603 339.208 88.8002ZM338.638 88.5603C338.418 88.4203 338.208 88.2603 338.008 88.0803L317.698 106.32L286.288 134.55C286.448 134.75 286.568 134.97 286.648 135.21C286.918 135.84 286.948 136.5 286.798 137.1L313.558 147.33L338.638 88.5603ZM293.668 -72.4497L264.958 -25.2297L280.828 -22.5897C281.068 -23.5798 281.788 -24.4197 282.778 -24.8097C283.288 -24.9897 283.828 -25.0498 284.338 -24.9897L288.058 -43.0497L294.118 -72.2697C293.958 -72.3097 293.808 -72.3697 293.668 -72.4497ZM239.368 65.6703L262.438 20.1003L245.578 12.3302C245.218 12.8703 244.678 13.3203 244.048 13.5603C243.658 13.7103 243.268 13.8003 242.908 13.8003L238.738 65.4903C238.958 65.5303 239.168 65.5903 239.368 65.6703ZM262.708 19.5603L282.238 -19.0198C282.018 -19.1598 281.808 -19.3297 281.608 -19.5297L245.578 8.79025C245.698 8.97026 245.798 9.16025 245.878 9.36026C246.208 10.1703 246.178 11.0403 245.848 11.7903L262.708 19.5603ZM264.628 -24.6597L244.798 7.95026C244.938 8.05026 245.078 8.17026 245.218 8.31026L268.378 -9.89974L281.248 -20.0097C281.128 -20.1897 281.028 -20.3797 280.948 -20.5797C280.768 -21.0597 280.708 -21.5397 280.738 -21.9897L264.628 -24.6597ZM263.998 -24.7797L196.468 -35.9697C196.348 -35.5198 196.138 -35.1298 195.868 -34.7698L240.718 8.10027C241.018 7.86026 241.318 7.65025 241.678 7.53026C242.548 7.17026 243.508 7.26025 244.288 7.62025L263.998 -24.7797ZM194.188 -33.6297L202.288 11.3103L239.638 10.3503C239.668 9.69026 239.908 9.06026 240.328 8.55026L195.478 -34.3197C195.178 -34.0798 194.878 -33.8997 194.518 -33.7497C194.418 -33.7097 194.308 -33.6697 194.188 -33.6297ZM202.378 11.9102L206.608 35.3103C207.628 35.2203 208.648 35.6403 209.338 36.4203L239.938 11.9703C239.898 11.8903 239.868 11.8103 239.848 11.7303C239.748 11.4702 239.678 11.2103 239.638 10.9503L202.378 11.9102ZM209.188 40.8002L218.128 49.2903L240.898 13.1403C240.658 12.9603 240.448 12.7402 240.268 12.4803L209.668 36.9003C209.748 37.0403 209.818 37.1902 209.878 37.3503C210.388 38.5802 210.058 39.9303 209.188 40.8002ZM218.578 49.7103L236.038 66.2403C236.308 66.0003 236.638 65.7903 236.998 65.6703C237.388 65.5203 237.748 65.4303 238.138 65.4303L242.128 13.7103C241.868 13.6503 241.628 13.5603 241.408 13.4403L218.578 49.7103ZM284.338 133.29L298.408 79.0803L241.318 69.5403C241.138 70.1703 240.748 70.7703 240.238 71.2203L257.398 96.6303L282.268 133.47C282.308 133.45 282.358 133.44 282.418 133.44C283.048 133.17 283.708 133.14 284.338 133.29ZM305.488 41.9703C305.278 41.3103 305.308 40.6203 305.548 39.9903L262.948 20.3703L239.908 65.9403C240.388 66.2703 240.808 66.6903 241.078 67.2303L305.488 41.9703ZM307.138 38.1903L284.848 -18.6297C284.158 -18.4197 283.408 -18.4798 282.778 -18.7197L263.248 19.8603L305.788 39.4503C306.088 38.9102 306.568 38.4603 307.138 38.1903ZM285.688 -18.9897L301.378 -18.3297L295.108 -72.1197C294.968 -72.1197 294.838 -72.1197 294.718 -72.1197L287.638 -38.0097L284.908 -24.8397C285.808 -24.5697 286.618 -23.8798 286.978 -22.9197C287.548 -21.4498 286.978 -19.7998 285.688 -18.9897ZM196.438 -37.6198C196.538 -37.2598 196.578 -36.8897 196.558 -36.5097L264.298 -25.2897L293.128 -72.7197C292.738 -73.0197 292.378 -73.4097 292.138 -73.8597L196.438 -37.6198ZM192.088 -33.7497L169.348 9.78026C169.888 10.1403 170.338 10.6503 170.608 11.3103C170.708 11.5903 170.768 11.8603 170.788 12.1203L201.658 11.3403L193.588 -33.5397C193.078 -33.4798 192.538 -33.5697 192.088 -33.7497ZM170.428 14.0403L204.328 36.5103C204.658 36.0903 205.108 35.7303 205.648 35.5203C205.768 35.4803 205.878 35.4402 205.978 35.4003L201.748 11.9102L170.818 12.7203C170.788 13.2003 170.638 13.6503 170.428 14.0403ZM202.978 77.6703L234.958 69.2403C234.808 68.3103 235.048 67.3803 235.618 66.6903L218.248 50.2203L201.808 76.3203C202.288 76.6503 202.708 77.1003 202.978 77.6703ZM202.918 80.4902L281.248 134.19C281.408 134.03 281.578 133.89 281.758 133.77L278.098 128.37L239.728 71.5502C239.608 71.6102 239.488 71.6703 239.368 71.7303C237.688 72.3603 235.798 71.5503 235.138 69.8703C235.138 69.8503 235.128 69.8303 235.108 69.8103L203.158 78.2402C203.368 79.0202 203.278 79.8002 202.918 80.4902ZM285.358 139.17L299.398 173.25C300.418 172.89 301.468 173.07 302.278 173.64L313.258 147.93L286.588 137.7C286.318 138.3 285.898 138.81 285.358 139.17ZM346.708 230.61L363.268 242.85L392.488 196.74C392.308 196.6 392.138 196.44 391.978 196.26L346.768 227.34C346.848 227.48 346.918 227.62 346.978 227.76C347.368 228.72 347.218 229.77 346.708 230.61ZM407.938 273.72L394.738 197.43C394.138 197.46 393.538 197.34 392.998 197.07L363.778 243.21L406.348 274.68C406.678 274.32 407.098 274.02 407.608 273.81C407.708 273.77 407.818 273.74 407.938 273.72ZM377.968 162.06L343.168 158.43C343.088 158.77 342.968 159.09 342.808 159.39L391.948 192.12C392.168 191.86 392.438 191.63 392.758 191.43L377.968 162.06ZM377.638 161.43L341.068 88.8303C340.868 88.8903 340.658 88.9303 340.438 88.9503L340.228 154.53C341.428 154.62 342.538 155.4 343.018 156.6C343.168 156.99 343.228 157.41 343.228 157.8L377.638 161.43ZM336.928 85.5003L299.008 79.1703L284.908 133.47C285.268 133.65 285.598 133.86 285.868 134.13L337.558 87.6902C337.378 87.4503 337.238 87.2003 337.138 86.9402C336.958 86.4603 336.898 85.9803 336.928 85.5003ZM307.498 44.1303C306.748 43.8603 306.088 43.2903 305.698 42.5403L241.288 67.8002C241.408 68.1803 241.448 68.5603 241.408 68.9403L298.558 78.4803L307.498 44.1303ZM307.948 37.9203L301.468 -17.7297L285.598 -18.3897L307.708 37.9803C307.788 37.9603 307.868 37.9403 307.948 37.9203ZM302.008 -18.2997L337.618 -16.7698L296.728 -72.5697C296.568 -72.4697 296.398 -72.3898 296.218 -72.3298C296.058 -72.2698 295.888 -72.2197 295.708 -72.1798L302.008 -18.2997ZM209.068 -76.0497L194.818 -39.6297C195.418 -39.3297 195.958 -38.8197 196.258 -38.1597L291.808 -74.3697L291.928 -74.5497C291.868 -74.7297 291.838 -74.9097 291.838 -75.0897L209.068 -76.0497ZM158.998 -78.2098L177.568 -56.0397L199.258 -74.5497C199.118 -74.7697 198.998 -74.9997 198.898 -75.2397C198.748 -75.6297 198.658 -76.0197 198.658 -76.4097L159.868 -79.9197C159.778 -79.2597 159.448 -78.6898 158.998 -78.2098ZM177.958 -55.5898L191.518 -39.3897C191.718 -39.5498 191.928 -39.6697 192.148 -39.7497C192.688 -39.9597 193.228 -40.0197 193.738 -39.9597L200.938 -73.3197C200.458 -73.4697 200.008 -73.7397 199.648 -74.0998L177.958 -55.5898ZM177.508 -55.1997L151.768 -33.2397C151.888 -33.0597 151.988 -32.8597 152.068 -32.6397C152.148 -32.4197 152.208 -32.2097 152.248 -32.0097L190.108 -36.6297C190.078 -37.5297 190.438 -38.3997 191.068 -39.0297L177.508 -55.1997ZM103.318 -18.8097C103.378 -18.2997 103.348 -17.8197 103.198 -17.3698L164.788 10.9203C165.148 10.2903 165.718 9.78026 166.438 9.51025C167.248 9.18025 168.088 9.24025 168.838 9.54025L191.578 -34.0198C191.038 -34.3497 190.588 -34.8897 190.318 -35.5497C190.298 -35.6297 190.268 -35.7197 190.228 -35.8197L103.318 -18.8097ZM150.778 -28.7097L185.038 -35.4297L152.308 -31.4097C152.278 -30.3298 151.708 -29.3097 150.778 -28.7097ZM102.988 -16.8297C102.628 -16.1697 102.058 -15.6297 101.308 -15.3297C100.888 -15.1797 100.468 -15.0898 100.048 -15.1198L97.2583 9.84026L164.398 12.1203C164.418 11.9003 164.468 11.6803 164.548 11.4603L102.988 -16.8297ZM97.9483 -15.9297L74.3083 7.23026C74.5083 7.49025 74.6783 7.78026 74.8183 8.10027C74.9383 8.42026 75.0083 8.75026 75.0283 9.09026L96.6583 9.81026L99.4483 -15.1797C98.9083 -15.2997 98.3983 -15.5697 97.9483 -15.9297ZM69.3583 7.14026L35.3083 -29.0697L90.3583 51.1203L72.8383 12.3603C71.1883 12.9003 69.3883 12.0903 68.7583 10.4703C68.2783 9.30026 68.5783 8.01025 69.3583 7.14026ZM33.8083 -29.0097L48.4783 39.4503L89.1583 52.8303C89.3383 52.3803 89.6383 51.9902 89.9983 51.6602L34.4083 -29.2797C34.2883 -29.2197 34.1583 -29.1597 34.0183 -29.0997C33.9583 -29.0797 33.8883 -29.0497 33.8083 -29.0097ZM95.3383 53.3403L167.338 43.6203V15.7503C166.378 15.6603 165.508 15.1503 164.938 14.3403L95.1283 52.7103C95.1483 52.7702 95.1683 52.8303 95.1883 52.8903C95.2483 53.0303 95.2983 53.1803 95.3383 53.3403ZM167.938 43.5303L203.668 38.7003C203.638 38.1003 203.788 37.5303 204.058 37.0203L170.158 14.5503C169.828 15.0003 169.378 15.3303 168.808 15.5403C168.528 15.6603 168.238 15.7303 167.938 15.7503V43.5303ZM167.938 44.1602V111.6C168.258 111.64 168.558 111.72 168.838 111.84L205.168 41.3103C204.598 40.9503 204.148 40.4403 203.878 39.7803C203.818 39.6203 203.778 39.4603 203.758 39.3002L167.938 44.1602ZM169.588 112.26L197.668 81.3002C197.428 81.0003 197.188 80.6703 197.038 80.2803C196.408 78.6303 197.218 76.7403 198.898 76.0803C199.318 75.9003 199.738 75.8403 200.188 75.8403L205.978 41.7303C205.878 41.6903 205.778 41.6503 205.678 41.6103L169.378 112.14C169.438 112.18 169.508 112.22 169.588 112.26ZM201.538 81.9902L247.438 177.93C248.428 177.57 249.508 177.72 250.348 178.26L281.398 138.87C281.068 138.54 280.798 138.15 280.618 137.7C280.228 136.68 280.378 135.57 280.918 134.73L202.678 81.0603C202.378 81.4503 201.988 81.7802 201.538 81.9902ZM251.758 180.39L257.908 179.85L281.188 140.1L250.798 178.62C251.128 178.95 251.428 179.34 251.608 179.79C251.668 179.99 251.718 180.19 251.758 180.39ZM258.658 179.79L297.238 176.37C297.268 175.2 297.868 174.12 298.918 173.55L284.848 139.53C283.978 139.86 283.048 139.8 282.268 139.44L258.658 179.79ZM258.298 180.42L231.748 225.72C231.948 225.86 232.128 226.02 232.288 226.2L297.718 178.08C297.638 177.92 297.558 177.75 297.478 177.57C297.398 177.39 297.348 177.19 297.328 176.97L258.298 180.42ZM297.418 228.45L340.768 228.69C340.858 227.97 341.158 227.25 341.698 226.74L301.918 179.31C301.838 179.35 301.768 179.39 301.708 179.43C301.348 179.55 300.958 179.64 300.598 179.64L297.418 228.45ZM338.518 280.35C338.838 280.43 339.138 280.55 339.418 280.71L363.028 243.45L346.408 231.18C346.078 231.54 345.688 231.84 345.178 232.05C344.788 232.2 344.338 232.29 343.948 232.26L338.518 280.35ZM340.918 284.16L402.088 298.59L407.608 279.96C406.798 279.63 406.138 279 405.778 278.13C405.718 277.93 405.668 277.73 405.628 277.53L340.978 283.71C340.978 283.87 340.958 284.02 340.918 284.16ZM388.888 345.27C389.428 345.48 389.878 345.81 390.268 346.26L400.888 339.12L443.038 310.77C442.958 310.65 442.898 310.53 442.858 310.41C442.648 309.87 442.588 309.3 442.648 308.76L402.508 299.28L388.888 345.27ZM390.568 349.89L407.908 361.26L443.728 311.67C443.588 311.55 443.458 311.42 443.338 311.28L390.568 346.74C390.648 346.86 390.708 346.99 390.748 347.13C391.138 348.06 391.018 349.08 390.568 349.89ZM378.448 403.08C378.718 403.38 378.958 403.74 379.138 404.16C379.278 404.52 379.348 404.88 379.348 405.24L459.118 397.38C459.118 396.84 459.268 396.3 459.508 395.85L408.058 362.07L378.448 403.08ZM433.258 434.73L460.168 399.72C459.838 399.42 459.538 399 459.358 398.55C459.278 398.35 459.228 398.16 459.208 397.98L379.318 405.84C379.258 406.23 379.138 406.62 378.928 406.98L433.258 434.73ZM433.798 435L461.248 449.04C461.608 448.35 462.208 447.81 462.958 447.51C463.098 447.45 463.248 447.4 463.408 447.36L462.178 400.59C461.638 400.53 461.128 400.38 460.648 400.08L433.798 435ZM466.078 447.9L496.228 417.03C496.008 416.77 495.828 416.46 495.688 416.1C495.388 415.32 495.388 414.51 495.658 413.79L474.268 403.41L464.818 447.36C465.268 447.45 465.688 447.63 466.078 447.9ZM488.998 337.05C488.838 337.07 488.678 337.07 488.518 337.05L474.388 402.81L495.928 413.25C496.288 412.65 496.828 412.17 497.518 411.9C497.678 411.84 497.848 411.79 498.028 411.75L488.998 337.05ZM411.688 278.46C411.608 278.58 411.528 278.69 411.448 278.79L443.638 306.84C443.938 306.54 444.298 306.33 444.718 306.15C445.828 305.73 447.028 305.94 447.928 306.63L454.468 299.79C454.228 299.52 454.018 299.22 453.898 298.86C453.598 298.14 453.598 297.36 453.808 296.67L411.688 278.46ZM447.838 172.2C447.268 171.93 446.758 171.48 446.428 170.88L397.618 193.17C398.188 194.79 397.348 196.62 395.728 197.25C395.608 197.29 395.498 197.33 395.398 197.37L408.598 273.66C408.978 273.62 409.348 273.65 409.708 273.75L447.838 172.2ZM342.238 89.8203L378.418 161.58L446.068 168.66C446.148 168.28 446.288 167.93 446.488 167.61L342.238 89.8203ZM310.258 43.9203C310.118 44.0003 309.978 44.0703 309.838 44.1303C309.268 44.3703 308.668 44.4003 308.128 44.3103L299.218 78.6303L337.078 84.9603C337.228 84.3303 337.588 83.7603 338.098 83.3103L310.258 43.9203ZM337.768 -16.1397L302.098 -17.6697L308.548 37.8603C308.998 37.8603 309.448 37.9503 309.838 38.1003L337.768 -16.1397ZM294.898 -78.5697C296.278 -78.6297 297.568 -77.8498 298.108 -76.4997C298.618 -75.1797 298.228 -73.7697 297.238 -72.8697L337.738 -17.6397L319.198 -118.29C318.628 -118.23 318.088 -118.32 317.578 -118.56L294.898 -78.5697ZM203.668 -79.1397C204.238 -78.7797 204.688 -78.2698 204.958 -77.6098C205.058 -77.2898 205.128 -76.9798 205.168 -76.6798L208.648 -76.6197L227.788 -125.52L203.668 -79.1397ZM149.818 -34.5897C150.418 -34.4398 150.958 -34.1397 151.378 -33.6898L177.088 -55.6497L158.518 -77.8197C158.318 -77.6797 158.098 -77.5598 157.858 -77.4598C157.408 -77.2798 156.928 -77.2197 156.478 -77.2497L149.818 -34.5897ZM109.378 -20.5797L148.468 -28.2297C147.388 -28.4397 146.458 -29.1297 146.038 -30.2097L109.378 -20.5797ZM-31.6217 11.0403C-31.5617 11.1403 -31.5117 11.2503 -31.4717 11.3703C-31.2317 12.0003 -31.2017 12.6903 -31.3217 13.2903L47.7583 39.2703L33.1783 -28.8597C32.0683 -28.7097 30.9583 -29.1897 30.2683 -30.0297L-31.6217 11.0403ZM54.8083 80.0703C55.1383 79.6503 55.5883 79.3203 56.1283 79.1103C56.1883 79.0903 56.2483 79.0703 56.3083 79.0502L47.9383 39.9603L-31.5017 13.8603C-31.5617 14.0003 -31.6417 14.1403 -31.7417 14.2803L54.8083 80.0703ZM89.3983 55.8603C89.2983 55.6803 89.2083 55.4903 89.1283 55.2903C88.8883 54.6903 88.8583 54.0603 88.9783 53.4603L48.5983 40.1703L56.9083 78.9003C57.9883 78.7803 59.0683 79.1703 59.7583 79.9803L89.3983 55.8603ZM165.268 112.62C165.598 112.29 165.988 112.05 166.438 111.87C166.718 111.75 167.008 111.68 167.308 111.66V44.2803L95.3983 53.9703C95.4283 54.7203 95.2183 55.4102 94.7983 56.0103L165.268 112.62ZM247.648 184.08L231.538 224.82L257.518 180.48L251.788 180.99C251.788 182.28 251.008 183.51 249.748 183.99C249.028 184.26 248.308 184.29 247.648 184.08ZM292.138 261.09C292.498 260.55 293.008 260.1 293.668 259.86C294.028 259.71 294.388 259.65 294.778 259.65L296.758 229.02L233.068 228.66C233.028 228.98 232.948 229.29 232.828 229.59L292.138 261.09ZM334.978 281.82C335.308 281.22 335.878 280.74 336.568 280.47C337.018 280.29 337.468 280.23 337.918 280.23L343.318 232.17C342.598 232.02 341.968 231.63 341.488 231.09L297.688 261.3C297.768 261.42 297.828 261.55 297.868 261.69C298.198 262.47 298.168 263.28 297.898 264L334.978 281.82ZM385.978 345.57C386.158 345.45 386.358 345.35 386.578 345.27C387.178 345.03 387.778 345 388.348 345.09L401.938 299.13L340.768 284.7C340.588 285.15 340.318 285.57 339.928 285.9L385.978 345.57ZM377.128 402.24C377.448 402.34 377.748 402.49 378.028 402.69L407.608 361.74L390.268 350.37C389.938 350.79 389.488 351.12 388.978 351.33C388.438 351.51 387.898 351.57 387.358 351.51L377.128 402.24ZM460.948 451.02C460.888 450.54 460.918 450.06 461.068 449.61L433.438 435.48L414.958 459.54C415.258 459.84 415.498 460.2 415.678 460.62C415.738 460.78 415.788 460.95 415.828 461.13L460.948 451.02Z" fill="#00A8E8"/>
<g style="mix-blend-mode:screen">
<path d="M-5.46279 77.2197C-3.42279 73.4697 1.28721 72.0597 5.06721 74.0997C8.84721 76.1397 10.2272 80.8797 8.18721 84.6297C6.14721 88.4097 1.43721 89.7897 -2.34279 87.7497C-6.09279 85.7097 -7.50279 80.9997 -5.46279 77.2197Z" fill="url(#paint0_radial_83479_2981)"/>
</g>
<g style="mix-blend-mode:screen">
<path d="M278.578 13.8302C280.618 10.0502 285.328 8.67023 289.108 10.7102C292.858 12.7502 294.268 17.4602 292.228 21.2402C290.188 24.9902 285.478 26.4002 281.698 24.3602C277.918 22.3202 276.538 17.6102 278.578 13.8302Z" fill="url(#paint1_radial_83479_2981)"/>
</g>
<g style="mix-blend-mode:screen">
<path d="M278.127 279.721C280.167 275.971 284.877 274.561 288.657 276.601C292.437 278.641 293.817 283.351 291.777 287.131C289.737 290.911 285.027 292.291 281.247 290.251C277.497 288.211 276.087 283.501 278.127 279.721Z" fill="url(#paint2_radial_83479_2981)"/>
</g>
<g style="mix-blend-mode:screen">
<path d="M11.3966 17.2496C12.4166 15.3596 14.7866 14.6696 16.6466 15.6896C18.5366 16.7096 19.2566 19.0496 18.2066 20.9396C17.1866 22.8296 14.8466 23.5196 12.9566 22.4996C11.0666 21.4796 10.3766 19.1396 11.3966 17.2496Z" fill="url(#paint3_radial_83479_2981)"/>
</g>
<g style="mix-blend-mode:screen">
<path d="M273.779 106.35C274.799 104.49 277.169 103.77 279.029 104.79C280.919 105.81 281.609 108.18 280.589 110.07C279.569 111.96 277.229 112.65 275.339 111.63C273.449 110.61 272.759 108.24 273.779 106.35Z" fill="url(#paint4_radial_83479_2981)"/>
</g>
<g style="mix-blend-mode:screen">
<path d="M213.359 242.94C214.379 241.05 216.749 240.36 218.639 241.38C220.529 242.4 221.219 244.77 220.199 246.63C219.179 248.52 216.809 249.24 214.919 248.19C213.059 247.17 212.339 244.83 213.359 242.94Z" fill="url(#paint5_radial_83479_2981)"/>
</g>
<g style="mix-blend-mode:screen">
<path d="M117.299 9.39119C118.319 7.50119 120.659 6.81119 122.549 7.83119C124.439 8.85119 125.129 11.2212 124.109 13.1112C123.089 14.9712 120.749 15.6912 118.859 14.6712C116.969 13.6512 116.279 11.2812 117.299 9.39119Z" fill="url(#paint6_radial_83479_2981)"/>
</g>
<g style="mix-blend-mode:screen">
<path d="M195.869 138.991C196.889 137.101 199.229 136.411 201.119 137.431C203.009 138.451 203.699 140.821 202.679 142.711C201.659 144.571 199.319 145.291 197.429 144.271C195.539 143.251 194.849 140.881 195.869 138.991Z" fill="url(#paint7_radial_83479_2981)"/>
</g>
<g style="mix-blend-mode:screen">
<path d="M175.736 286.05C176.756 284.16 179.096 283.47 180.986 284.49C182.876 285.51 183.566 287.88 182.546 289.77C181.526 291.63 179.186 292.35 177.296 291.33C175.406 290.31 174.716 287.94 175.736 286.05Z" fill="url(#paint8_radial_83479_2981)"/>
</g>
<g style="mix-blend-mode:screen">
<path d="M178.229 27.1197C179.249 25.2297 181.589 24.5397 183.479 25.5597C185.369 26.5797 186.059 28.9197 185.039 30.8097C184.019 32.6997 181.649 33.3897 179.789 32.3697C177.899 31.3497 177.209 29.0097 178.229 27.1197Z" fill="url(#paint9_radial_83479_2981)"/>
</g>
</g>
</g>
<defs>
<radialGradient id="paint0_radial_83479_2981" cx="0" cy="0" r="1" gradientUnits="userSpaceOnUse" gradientTransform="translate(1.36371 80.9337) rotate(-151.539) scale(7.7643)">
<stop stop-color="white"/>
<stop offset="1"/>
</radialGradient>
<radialGradient id="paint1_radial_83479_2981" cx="0" cy="0" r="1" gradientUnits="userSpaceOnUse" gradientTransform="translate(285.395 17.5289) rotate(-151.539) scale(7.7643)">
<stop stop-color="white"/>
<stop offset="1"/>
</radialGradient>
<radialGradient id="paint2_radial_83479_2981" cx="0" cy="0" r="1" gradientUnits="userSpaceOnUse" gradientTransform="translate(284.953 283.428) rotate(-151.539) scale(7.7643)">
<stop stop-color="white"/>
<stop offset="1"/>
</radialGradient>
<radialGradient id="paint3_radial_83479_2981" cx="0" cy="0" r="1" gradientUnits="userSpaceOnUse" gradientTransform="translate(14.8073 19.0904) rotate(-151.538) scale(3.88202)">
<stop stop-color="white"/>
<stop offset="1"/>
</radialGradient>
<radialGradient id="paint4_radial_83479_2981" cx="0" cy="0" r="1" gradientUnits="userSpaceOnUse" gradientTransform="translate(277.189 108.214) rotate(-151.538) scale(3.88202)">
<stop stop-color="white"/>
<stop offset="1"/>
</radialGradient>
<radialGradient id="paint5_radial_83479_2981" cx="0" cy="0" r="1" gradientUnits="userSpaceOnUse" gradientTransform="translate(216.782 244.792) rotate(-151.538) scale(3.88202 3.88202)">
<stop stop-color="white"/>
<stop offset="1"/>
</radialGradient>
<radialGradient id="paint6_radial_83479_2981" cx="0" cy="0" r="1" gradientUnits="userSpaceOnUse" gradientTransform="translate(120.701 11.2509) rotate(-151.538) scale(3.88202)">
<stop stop-color="white"/>
<stop offset="1"/>
</radialGradient>
<radialGradient id="paint7_radial_83479_2981" cx="0" cy="0" r="1" gradientUnits="userSpaceOnUse" gradientTransform="translate(199.277 140.846) rotate(-151.538) scale(3.88202 3.88202)">
<stop stop-color="#5D59A8"/>
<stop offset="1" stop-color="#F2F2F8"/>
</radialGradient>
<radialGradient id="paint8_radial_83479_2981" cx="0" cy="0" r="1" gradientUnits="userSpaceOnUse" gradientTransform="translate(179.14 287.909) rotate(-151.538) scale(3.88202)">
<stop stop-color="white"/>
<stop offset="1"/>
</radialGradient>
<radialGradient id="paint9_radial_83479_2981" cx="0" cy="0" r="1" gradientUnits="userSpaceOnUse" gradientTransform="translate(181.629 28.9617) rotate(-151.538) scale(3.88202)">
<stop stop-color="white"/>
<stop offset="1"/>
</radialGradient>
</defs>
</svg>
