<svg width="18" height="18" viewBox="0 0 18 18" fill="none" xmlns="http://www.w3.org/2000/svg">
<path d="M9.49704 0.327202C10.1081 0.324857 10.7192 0.330999 11.3301 0.345625L11.4926 0.351487C11.6801 0.358186 11.8652 0.36656 12.0888 0.376609C12.9798 0.418479 13.5877 0.559162 14.1212 0.766C14.6738 0.978699 15.1394 1.26676 15.605 1.73236C16.0307 2.15073 16.3602 2.6568 16.5706 3.21539C16.7774 3.74882 16.9181 4.35761 16.9599 5.2486C16.97 5.47135 16.9784 5.65725 16.9851 5.84483L16.9901 6.00728C17.005 6.61791 17.0114 7.22871 17.0094 7.83951L17.0102 8.46421V9.56121C17.0123 10.1723 17.0058 10.7834 16.9909 11.3943L16.9859 11.5567C16.9792 11.7443 16.9708 11.9294 16.9608 12.153C16.9189 13.044 16.7766 13.6519 16.5706 14.1853C16.3609 14.7445 16.0314 15.251 15.605 15.6692C15.1863 16.0949 14.68 16.4243 14.1212 16.6347C13.5877 16.8416 12.9798 16.9822 12.0888 17.0241C11.8652 17.0342 11.6801 17.0425 11.4926 17.0492L11.3301 17.0543C10.7192 17.0691 10.1081 17.0756 9.49704 17.0735L8.87234 17.0744H7.77619C7.16511 17.0764 6.55402 17.07 5.94312 17.0551L5.78066 17.0501C5.58187 17.0429 5.38313 17.0345 5.18444 17.0249C4.29344 16.9831 3.68549 16.8407 3.15123 16.6347C2.59242 16.4248 2.08626 16.0953 1.6682 15.6692C1.242 15.2507 0.912212 14.7443 0.701837 14.1853C0.494999 13.6519 0.354316 13.044 0.312446 12.153C0.30312 11.9543 0.294746 11.7555 0.287324 11.5567L0.283137 11.3943C0.267698 10.7834 0.260719 10.1723 0.262202 9.56121V7.83951C0.259865 7.22871 0.266006 6.61791 0.280625 6.00728L0.286487 5.84483C0.293186 5.65725 0.30156 5.47135 0.311609 5.2486C0.353478 4.35677 0.494162 3.74965 0.700999 3.21539C0.911499 2.65653 1.24193 2.15059 1.66903 1.7332C2.08681 1.30675 2.59265 0.976666 3.15123 0.766C3.68549 0.559162 4.29261 0.418479 5.18444 0.376609L5.78066 0.351487L5.94312 0.3473C6.55374 0.331869 7.16454 0.32489 7.77535 0.326365L9.49704 0.327202ZM8.6362 4.5142C8.08143 4.50635 7.53063 4.60885 7.01581 4.81572C6.50099 5.02259 6.03243 5.32973 5.63734 5.71926C5.24225 6.1088 4.92853 6.57298 4.71439 7.08482C4.50026 7.59666 4.38999 8.14595 4.38999 8.70078C4.38999 9.25561 4.50026 9.8049 4.71439 10.3167C4.92853 10.8286 5.24225 11.2928 5.63734 11.6823C6.03243 12.0718 6.50099 12.379 7.01581 12.5858C7.53063 12.7927 8.08143 12.8952 8.6362 12.8874C9.74666 12.8874 10.8116 12.4462 11.5969 11.661C12.3821 10.8758 12.8232 9.81082 12.8232 8.70036C12.8232 7.5899 12.3821 6.52492 11.5969 5.73971C10.8116 4.95449 9.74666 4.5142 8.6362 4.5142ZM8.6362 6.189C8.96991 6.18285 9.3015 6.24326 9.6116 6.3667C9.9217 6.49014 10.2041 6.67414 10.4423 6.90794C10.6805 7.14175 10.8697 7.42067 10.9989 7.72843C11.1281 8.03618 11.1946 8.36659 11.1947 8.70035C11.1947 9.03412 11.1283 9.36455 10.9992 9.67234C10.8701 9.98014 10.681 10.2591 10.4429 10.493C10.2048 10.7269 9.92243 10.911 9.61237 11.0345C9.30232 11.1581 8.97075 11.2186 8.63704 11.2126C7.97076 11.2126 7.33177 10.9479 6.86064 10.4768C6.38951 10.0056 6.12484 9.36664 6.12484 8.70036C6.12484 8.03408 6.38951 7.3951 6.86064 6.92397C7.33177 6.45284 7.97076 6.18816 8.63704 6.18816L8.6362 6.189ZM13.0325 3.2581C12.7624 3.26891 12.5069 3.38384 12.3196 3.5788C12.1323 3.77376 12.0277 4.03364 12.0277 4.30401C12.0277 4.57438 12.1323 4.83426 12.3196 5.02922C12.5069 5.22419 12.7624 5.33911 13.0325 5.34992C13.3102 5.34992 13.5764 5.23964 13.7727 5.04334C13.969 4.84703 14.0793 4.58079 14.0793 4.30317C14.0793 4.02556 13.969 3.75932 13.7727 3.56301C13.5764 3.36671 13.3102 3.25643 13.0325 3.25643V3.2581Z" fill="#FCFCFC"/>
</svg>
