<svg width="17" height="16" viewBox="0 0 17 16" fill="none" xmlns="http://www.w3.org/2000/svg">
<path d="M3.50975 1.83872C3.50953 2.28291 3.33287 2.70881 3.01863 3.02274C2.70438 3.33667 2.2783 3.51291 1.83412 3.51268C1.38993 3.51246 0.96403 3.3358 0.650102 3.02155C0.336173 2.70731 0.159934 2.28123 0.160156 1.83705C0.160379 1.39286 0.337043 0.96696 0.651286 0.653031C0.965529 0.339102 1.39161 0.162864 1.83579 0.163086C2.27998 0.163308 2.70588 0.339973 3.01981 0.654215C3.33374 0.968458 3.50998 1.39454 3.50975 1.83872ZM3.56 4.75287H0.2104V15.2371H3.56V4.75287ZM8.85236 4.75287H5.51951V15.2371H8.81887V9.7354C8.81887 6.67052 12.8133 6.3858 12.8133 9.7354V15.2371H16.121V8.59654C16.121 3.42978 10.209 3.62238 8.81887 6.1597L8.85236 4.75287Z" fill="#FCFCFC"/>
</svg>
